<?xml version="1.0" standalone="no"?>
<!DOCTYPE svg PUBLIC "-//W3C//DTD SVG 20010904//EN"
 "http://www.w3.org/TR/2001/REC-SVG-20010904/DTD/svg10.dtd">
<svg version="1.0" xmlns="http://www.w3.org/2000/svg"
 width="3201.000000pt" height="3201.000000pt" viewBox="0 0 3201.000000 3201.000000"
 preserveAspectRatio="xMidYMid meet">
<metadata>
Created by potrace 1.14, written by Peter Selinger 2001-2017
</metadata>
<g transform="translate(0.000000,3201.000000) scale(0.100000,-0.100000)"
fill="#000000" stroke="none">
<path d="M17902 26672 c-51 -1 -91 -6 -88 -10 2 -4 -4 -8 -14 -8 -10 0 -16 5
-13 10 4 5 1 6 -6 1 -7 -4 -47 -10 -90 -12 -42 -3 -84 -10 -95 -15 -10 -6 -16
-6 -13 -1 4 5 0 10 -8 10 -8 0 -12 -4 -9 -9 3 -4 -17 -8 -43 -8 -27 0 -55 -6
-62 -12 -11 -10 -13 -10 -7 0 4 6 3 12 -1 12 -5 0 -15 -6 -22 -12 -8 -7 -11
-8 -8 -2 3 6 0 11 -8 11 -8 0 -12 -4 -9 -9 3 -4 -14 -8 -38 -9 -90 -1 -173
-11 -179 -21 -4 -6 -9 -5 -12 3 -4 10 -6 10 -6 2 -1 -9 -18 -13 -52 -13 -31 0
-48 -4 -44 -10 4 -6 -13 -10 -42 -10 -27 0 -53 -4 -58 -9 -6 -5 -41 -12 -79
-15 -38 -3 -76 -12 -84 -18 -13 -10 -14 -10 -8 0 4 6 3 12 -3 12 -5 0 -11 -5
-13 -10 -2 -6 -20 -11 -40 -12 -21 -1 -35 -5 -32 -9 2 -4 -4 -7 -13 -7 -37 2
-138 -14 -148 -23 -5 -5 -21 -9 -35 -9 -14 0 -30 -4 -36 -10 -5 -5 -22 -11
-37 -12 -15 -1 -27 -6 -27 -10 0 -4 -3 -7 -7 -6 -16 4 -113 -14 -113 -21 0 -6
-20 -11 -62 -14 -9 -1 -14 -5 -12 -9 3 -4 -6 -8 -20 -8 -14 0 -26 -4 -26 -8 0
-5 -6 -9 -12 -9 -44 -3 -104 -17 -106 -24 -2 -5 -15 -9 -28 -9 -13 0 -24 -4
-24 -10 0 -5 -11 -10 -25 -10 -14 0 -51 -9 -82 -20 -31 -11 -60 -17 -66 -13
-6 3 -7 1 -3 -5 6 -11 -6 -16 -26 -13 -5 0 -8 -3 -8 -9 0 -6 -3 -9 -7 -8 -16
3 -83 -15 -89 -23 -3 -5 -14 -9 -25 -9 -10 0 -19 -4 -19 -9 0 -8 -75 -26 -93
-22 -5 1 -6 -3 -2 -9 3 -5 -2 -10 -12 -10 -10 0 -33 -9 -51 -20 -18 -11 -41
-20 -52 -20 -10 0 -25 -7 -33 -15 -12 -11 -17 -12 -20 -2 -4 9 -6 9 -6 0 -1
-7 -8 -13 -16 -13 -8 0 -15 -4 -15 -10 0 -5 -9 -10 -20 -10 -11 0 -20 -6 -20
-12 0 -10 -2 -10 -9 0 -7 11 -9 11 -14 -2 -4 -9 -10 -16 -14 -15 -24 4 -43 -2
-38 -12 4 -6 1 -10 -6 -8 -29 3 -50 -1 -44 -11 3 -5 0 -10 -7 -11 -36 -2 -142
-51 -132 -61 2 -3 -14 -8 -36 -12 -23 -4 -38 -11 -35 -16 3 -6 -3 -10 -14 -10
-12 0 -21 -5 -21 -11 0 -5 -4 -8 -9 -4 -5 3 -16 -1 -24 -9 -8 -8 -28 -18 -43
-22 -16 -4 -32 -12 -36 -18 -4 -6 -11 -11 -15 -11 -11 0 -107 -47 -113 -55 -6
-8 -51 -33 -62 -36 -5 -1 -15 -2 -24 -3 -8 0 -12 -5 -9 -11 3 -5 -1 -10 -9
-10 -9 0 -16 -4 -16 -10 0 -5 -16 -12 -35 -16 -19 -3 -32 -10 -29 -15 3 -5 -2
-9 -10 -9 -9 0 -16 -5 -16 -11 0 -5 -5 -7 -10 -4 -6 3 -13 -1 -16 -9 -3 -9
-15 -16 -25 -16 -11 0 -22 -7 -26 -16 -5 -13 -7 -13 -14 -2 -7 10 -9 10 -9 1
0 -7 -7 -13 -16 -13 -8 0 -12 -4 -9 -10 3 -5 0 -10 -9 -10 -8 0 -16 -5 -18
-11 -2 -5 -11 -11 -19 -12 -9 -2 -24 -11 -33 -20 -10 -9 -22 -15 -27 -12 -5 4
-9 2 -9 -4 0 -6 -11 -13 -25 -17 -14 -3 -25 -10 -25 -15 0 -5 -5 -9 -11 -9
-15 0 -39 -26 -32 -34 4 -3 -1 -6 -10 -6 -26 0 -90 -37 -75 -43 8 -4 7 -6 -4
-6 -10 -1 -18 -6 -18 -12 0 -5 -4 -7 -10 -4 -5 3 -10 1 -10 -4 0 -6 -3 -10 -8
-8 -4 1 -18 -8 -31 -20 -13 -12 -37 -25 -54 -29 -22 -4 -26 -8 -16 -15 12 -7
11 -9 -1 -10 -8 -1 -18 -1 -22 0 -4 0 -9 -8 -13 -18 -3 -11 -18 -22 -32 -26
-15 -3 -33 -15 -41 -26 -7 -10 -20 -19 -28 -19 -8 0 -17 -7 -20 -15 -4 -8 -16
-15 -28 -15 -17 0 -18 -2 -6 -10 13 -8 12 -10 -2 -10 -10 0 -27 -9 -38 -20
-12 -12 -26 -18 -33 -14 -7 4 -9 4 -5 -1 8 -8 -62 -78 -70 -70 -2 2 -15 -6
-28 -18 -40 -38 -53 -47 -65 -47 -7 0 -9 -3 -6 -6 9 -9 -32 -44 -50 -44 -8 0
-11 -4 -8 -10 3 -5 -1 -10 -10 -10 -9 0 -13 -4 -10 -10 3 -5 1 -10 -6 -10 -6
0 -22 -11 -34 -24 -13 -14 -26 -22 -29 -19 -3 4 -6 1 -6 -6 0 -7 -5 -9 -10 -6
-6 4 -9 1 -8 -6 2 -7 -4 -14 -12 -14 -8 0 -14 -6 -13 -13 2 -7 -1 -12 -7 -12
-5 0 -24 -16 -43 -35 -19 -19 -39 -35 -46 -35 -7 0 -9 -4 -6 -10 3 -5 -1 -10
-9 -10 -9 0 -16 -5 -16 -11 0 -5 -3 -8 -7 -6 -5 3 -13 -1 -20 -8 -10 -11 -10
-15 0 -18 7 -3 4 -6 -5 -6 -10 -1 -18 -5 -18 -10 0 -5 -9 -12 -19 -16 -10 -3
-21 -15 -24 -26 -3 -12 -10 -18 -16 -14 -6 3 -11 -1 -11 -9 0 -8 -9 -17 -19
-21 -11 -3 -23 -15 -26 -26 -6 -17 -17 -23 -37 -20 -4 0 -10 -10 -14 -24 -3
-14 -10 -22 -15 -19 -5 3 -9 -2 -9 -10 0 -9 -4 -17 -10 -17 -5 -1 -16 -2 -22
-3 -7 -1 -12 -7 -11 -14 2 -7 -2 -12 -8 -12 -5 0 -7 -4 -4 -10 6 -9 -8 -14
-28 -11 -5 1 -6 -3 -2 -9 3 -5 1 -10 -4 -10 -6 0 -11 -7 -11 -16 0 -8 -4 -12
-10 -9 -5 3 -10 -1 -10 -10 0 -9 -4 -14 -8 -11 -5 3 -15 -4 -23 -16 -13 -20
-91 -99 -124 -126 -8 -7 -13 -17 -10 -23 4 -5 -1 -9 -9 -9 -9 0 -16 -7 -16
-16 0 -8 -4 -13 -9 -10 -5 3 -12 -6 -15 -19 -4 -14 -11 -23 -16 -20 -6 3 -10
-1 -10 -10 0 -9 -4 -14 -9 -10 -5 3 -12 -4 -16 -15 -3 -11 -11 -20 -16 -20 -5
0 -9 -7 -9 -15 0 -8 -3 -14 -7 -14 -20 3 -34 -2 -28 -11 3 -5 1 -10 -5 -10 -6
0 -8 -4 -5 -10 3 -5 1 -10 -5 -10 -6 0 -9 -4 -5 -9 3 -5 -3 -12 -13 -15 -9 -3
-26 -21 -36 -40 -10 -20 -21 -34 -25 -33 -3 1 -7 -2 -8 -6 -1 -5 -13 -19 -27
-32 -14 -13 -26 -29 -26 -34 0 -6 -8 -15 -17 -20 -10 -6 -14 -11 -9 -11 5 0
-8 -17 -30 -38 -21 -21 -40 -44 -42 -52 -2 -8 -11 -21 -21 -29 -10 -9 -21 -26
-25 -39 -4 -12 -12 -20 -17 -17 -5 4 -9 -1 -9 -9 0 -8 -8 -20 -19 -25 -10 -6
-22 -22 -25 -36 -4 -14 -11 -23 -16 -20 -6 3 -10 -3 -10 -14 0 -12 -4 -21 -9
-21 -5 0 -12 -8 -16 -19 -3 -10 -19 -33 -35 -50 -17 -17 -30 -35 -30 -39 0
-15 -37 -52 -44 -44 -4 4 -7 2 -5 -3 3 -15 -13 -67 -19 -61 -5 6 -27 -26 -38
-56 -3 -10 -10 -18 -15 -18 -5 0 -9 -9 -9 -19 0 -11 -9 -23 -20 -26 -11 -3
-20 -14 -20 -24 0 -10 -11 -31 -25 -47 -14 -16 -25 -34 -25 -41 0 -6 -6 -18
-12 -25 -7 -7 -19 -25 -27 -40 -8 -15 -17 -25 -21 -23 -4 3 -10 -8 -13 -23 -3
-15 -15 -37 -27 -49 -11 -13 -23 -36 -26 -53 -4 -16 -10 -30 -15 -30 -5 0 -9
-7 -9 -17 0 -9 -3 -13 -6 -10 -7 7 -44 -55 -44 -73 0 -6 -9 -20 -20 -32 -11
-12 -20 -30 -20 -39 0 -10 -7 -24 -15 -33 -8 -8 -15 -19 -15 -25 0 -6 -4 -11
-10 -11 -5 0 -10 -7 -10 -15 0 -8 -4 -15 -9 -15 -5 0 -12 -18 -16 -40 -4 -22
-11 -38 -16 -34 -5 3 -9 -4 -9 -15 0 -12 -6 -21 -12 -21 -10 0 -10 -2 0 -9 11
-7 11 -9 -2 -14 -9 -4 -16 -16 -16 -27 0 -11 -4 -20 -10 -20 -5 0 -10 -7 -10
-15 0 -8 -4 -15 -9 -15 -5 0 -12 -18 -16 -39 -3 -22 -15 -47 -26 -57 -10 -9
-19 -28 -19 -41 0 -13 -4 -22 -9 -19 -5 4 -12 -12 -16 -34 -4 -22 -11 -40 -16
-40 -5 0 -9 -9 -9 -21 0 -11 -4 -17 -10 -14 -5 3 -10 -3 -10 -14 0 -28 -30
-101 -41 -101 -5 0 -9 -11 -9 -25 0 -14 -4 -25 -9 -25 -5 0 -12 -19 -16 -42
-4 -24 -11 -45 -14 -48 -13 -9 -41 -78 -41 -99 0 -12 -7 -33 -16 -46 -9 -13
-12 -30 -8 -36 4 -7 3 -9 -3 -6 -11 7 -43 -80 -43 -115 0 -10 -4 -16 -10 -13
-6 4 -10 -7 -10 -25 0 -18 -4 -29 -10 -25 -6 3 -10 -4 -11 -17 -1 -41 -9 -73
-19 -76 -6 -2 -10 -19 -10 -38 0 -21 -4 -33 -10 -29 -6 4 -10 -9 -10 -32 0
-25 -3 -33 -9 -24 -6 9 -11 -7 -16 -48 -4 -33 -11 -64 -16 -67 -5 -3 -9 -14
-9 -24 0 -10 -6 -21 -12 -23 -10 -4 -10 -6 0 -6 6 -1 12 -6 12 -12 0 -5 -4 -7
-10 -4 -5 3 -10 -2 -11 -12 -1 -46 -12 -109 -20 -118 -5 -5 -9 -22 -9 -38 0
-16 -4 -26 -10 -22 -6 3 -10 -4 -11 -17 -1 -46 -10 -103 -17 -108 -4 -3 -9
-18 -11 -35 -1 -16 -8 -33 -13 -36 -6 -4 -5 -9 3 -12 10 -4 10 -6 2 -6 -7 -1
-13 -12 -13 -25 0 -14 -5 -28 -10 -31 -8 -5 -7 -12 2 -23 7 -9 8 -13 2 -9 -8
5 -14 -16 -19 -68 -4 -41 -11 -77 -16 -81 -5 -3 -9 -24 -9 -48 0 -23 -6 -48
-12 -55 -11 -11 -10 -12 2 -6 12 7 13 6 3 -6 -6 -8 -15 -52 -18 -99 -4 -47
-11 -89 -15 -95 -5 -5 -9 -32 -11 -60 -1 -27 -7 -56 -13 -64 -8 -11 -8 -13 0
-8 6 3 11 0 11 -8 0 -8 -4 -12 -9 -9 -4 3 -8 -15 -8 -40 0 -25 -5 -48 -10 -51
-7 -4 -7 -13 0 -24 5 -11 5 -22 0 -27 -7 -7 -25 -258 -22 -317 0 -11 -4 -15
-11 -10 -7 4 -5 -2 3 -12 9 -11 10 -16 3 -11 -9 5 -13 0 -13 -16 0 -18 2 -20
10 -8 7 12 9 10 7 -7 0 -12 -4 -20 -8 -17 -4 2 -8 -40 -9 -93 -2 -125 -4 -145
-14 -162 -6 -10 -5 -12 2 -7 8 5 11 -1 10 -18 -1 -15 -6 -26 -11 -26 -5 0 -4
-7 3 -15 8 -10 9 -19 3 -27 -11 -15 -11 -118 1 -136 4 -7 2 -19 -4 -27 -9 -11
-9 -15 -1 -15 6 0 11 -17 11 -41 0 -28 4 -38 12 -33 6 4 8 3 5 -3 -8 -12 17
-85 26 -76 4 3 7 -1 7 -10 0 -9 5 -17 10 -17 6 0 10 -5 10 -11 0 -16 89 -99
106 -99 8 0 14 -3 14 -8 0 -10 47 -30 90 -37 19 -4 307 -7 640 -7 439 0 609
-3 619 -12 11 -8 13 -8 8 0 -9 16 133 16 152 1 11 -9 13 -9 8 -1 -9 16 73 17
92 1 12 -9 13 -9 7 1 -5 8 0 12 16 12 13 0 30 -6 37 -12 8 -8 11 -8 8 -2 -9
16 133 16 152 1 10 -8 13 -9 8 -1 -10 17 131 18 151 2 9 -8 13 -8 9 -2 -9 16
133 16 152 1 11 -9 13 -9 8 -1 -9 16 73 17 92 1 12 -9 13 -9 7 1 -5 8 0 12 16
12 13 0 30 -6 37 -12 8 -8 11 -8 8 -2 -9 16 133 16 152 1 11 -9 13 -9 8 -1
-10 17 1412 17 1432 0 11 -8 13 -8 8 0 -9 16 133 16 152 1 11 -9 13 -9 8 -1
-9 16 73 17 92 1 12 -9 13 -9 7 1 -10 16 35 16 53 0 8 -8 11 -8 8 -2 -9 16
133 16 152 1 11 -9 13 -9 8 -1 -10 17 4132 17 4152 0 11 -8 13 -8 8 0 -9 16
73 17 92 1 12 -9 13 -9 7 1 -5 8 0 12 16 12 13 0 30 -6 37 -12 8 -8 11 -8 8
-2 -9 16 133 16 152 1 11 -9 13 -9 8 -1 -10 17 1412 17 1432 0 11 -8 13 -8 8
0 -9 16 133 16 152 1 11 -9 13 -9 8 -1 -9 16 73 17 92 1 12 -9 13 -9 7 1 -10
16 35 16 53 0 8 -8 11 -8 8 -2 -9 16 133 16 152 1 11 -9 13 -9 8 -1 -10 17
3972 17 3992 0 11 -8 13 -8 8 0 -5 9 15 12 71 11 98 0 192 12 192 24 0 6 4 8
9 4 5 -3 16 2 24 10 9 8 20 15 25 15 14 0 52 36 45 44 -3 3 0 6 8 6 17 0 39
24 61 66 8 16 23 43 32 59 9 17 16 42 16 58 0 15 5 27 11 27 8 0 7 6 -2 17
-10 11 -10 14 -1 9 7 -4 12 -2 12 6 0 8 -6 20 -12 27 -8 9 -8 11 -2 8 15 -9
19 205 5 232 -6 10 -7 22 -3 25 4 4 7 30 8 57 0 29 -3 44 -8 37 -4 -7 -8 29
-8 82 -2 181 -10 303 -23 319 -9 12 -9 13 1 7 7 -4 12 -1 12 9 0 9 -4 14 -9
11 -11 -7 -9 13 2 32 5 7 4 12 -2 12 -7 0 -11 25 -11 61 0 33 -3 58 -8 56 -4
-3 -8 7 -8 21 -1 15 -5 74 -9 132 -4 58 -8 110 -8 117 0 7 -4 10 -9 7 -4 -3
-8 16 -8 41 0 31 -4 44 -11 39 -7 -4 -7 1 1 16 8 15 8 20 1 16 -7 -5 -11 5
-11 29 0 22 -4 34 -10 30 -5 -3 -10 -2 -10 4 0 5 6 12 13 14 8 4 9 8 1 14 -6
4 -14 42 -18 83 -4 41 -12 80 -17 86 -5 6 -10 29 -12 50 -1 22 -5 41 -9 44 -4
3 -11 39 -14 79 -4 45 -10 67 -15 59 -6 -9 -9 -3 -9 17 0 17 -6 37 -12 44 -10
11 -10 13 0 7 6 -4 12 -3 12 3 0 5 -4 11 -10 13 -5 2 -11 15 -12 31 -1 15 -5
27 -9 27 -3 0 -6 6 -6 13 -1 39 -14 102 -24 108 -6 3 -10 9 -10 13 4 26 0 56
-7 52 -4 -2 -8 3 -9 12 -2 43 -16 108 -24 117 -5 5 -9 17 -9 27 0 10 -4 18
-10 18 -5 0 -10 13 -10 29 0 17 -4 32 -9 35 -5 3 -12 26 -15 51 -4 25 -11 45
-17 45 -5 0 -9 8 -9 19 0 10 -7 35 -15 54 -8 20 -15 48 -15 62 0 15 -4 24 -10
20 -6 -4 -10 5 -10 19 0 14 -4 26 -10 26 -5 0 -10 13 -10 29 0 16 -4 31 -9 33
-6 2 -13 19 -16 38 -3 19 -10 37 -16 38 -5 2 -9 15 -9 28 0 14 -4 23 -9 20 -5
-3 -12 17 -16 45 -5 35 -10 47 -16 38 -6 -10 -9 -7 -9 11 0 15 -4 30 -9 35 -6
6 -13 26 -16 45 -3 19 -10 37 -16 38 -5 2 -9 12 -9 22 0 10 -5 20 -10 22 -6 2
-12 13 -13 25 0 12 -5 19 -9 17 -4 -3 -8 -2 -9 3 -2 27 -9 47 -18 56 -6 6 -11
19 -11 29 0 10 -4 18 -10 18 -5 0 -10 7 -10 15 0 26 -32 95 -41 89 -5 -3 -9 6
-9 19 0 14 -7 30 -15 37 -8 6 -14 15 -13 18 3 23 -3 42 -12 37 -5 -3 -10 1
-10 9 0 9 -6 16 -12 16 -9 0 -8 4 2 10 10 6 11 10 3 10 -7 0 -13 6 -13 14 0 8
-7 21 -15 30 -9 8 -16 18 -15 21 1 26 -2 35 -10 30 -5 -3 -10 1 -10 9 0 9 -5
16 -11 16 -5 0 -8 4 -4 9 3 5 1 12 -5 16 -5 3 -10 15 -10 26 0 10 -4 19 -10
19 -5 0 -10 6 -10 14 0 8 -5 16 -10 18 -6 2 -12 13 -15 26 -4 21 -40 81 -56
92 -4 3 -11 18 -14 33 -4 15 -11 27 -16 27 -5 0 -9 7 -9 15 0 8 -4 15 -9 15
-5 0 -12 13 -16 29 -3 16 -15 37 -25 46 -10 9 -22 30 -25 46 -4 16 -11 27 -16
23 -5 -3 -9 2 -9 10 0 9 -4 16 -10 16 -5 0 -10 9 -10 19 0 10 -7 22 -16 25 -8
3 -13 10 -9 15 3 5 -5 21 -19 34 -13 13 -27 33 -30 45 -4 12 -12 22 -17 22 -5
0 -9 7 -9 15 0 8 -4 15 -10 15 -5 0 -10 7 -10 16 0 8 -4 13 -9 10 -5 -4 -12 7
-16 24 -3 16 -17 40 -31 52 -13 13 -24 31 -24 40 0 9 -9 20 -20 23 -11 3 -20
13 -20 22 0 9 -11 26 -26 39 -14 13 -22 24 -19 24 3 0 -5 15 -19 33 -14 19
-23 37 -18 41 4 4 0 6 -8 4 -8 -1 -14 2 -13 9 2 6 -6 15 -17 18 -10 3 -21 19
-25 35 -4 16 -15 32 -26 35 -11 4 -22 19 -26 36 -3 16 -14 31 -24 34 -11 4
-19 11 -19 17 0 15 -36 58 -44 51 -3 -3 -6 1 -6 10 0 8 -11 24 -25 35 -14 11
-25 27 -25 37 0 9 -4 14 -9 10 -5 -3 -12 4 -16 15 -3 11 -11 20 -16 20 -5 0
-9 10 -9 23 0 14 -3 18 -8 10 -6 -9 -13 -3 -26 18 -10 16 -38 50 -62 75 -24
25 -44 51 -44 57 0 8 -4 7 -9 -2 -7 -10 -11 -6 -16 17 -4 18 -15 34 -26 37
-10 4 -19 10 -19 14 0 14 -45 61 -58 61 -7 0 -11 4 -8 8 3 5 -6 16 -19 26 -14
10 -22 23 -19 28 3 4 2 7 -3 6 -4 -2 -9 2 -11 7 -6 19 -35 45 -43 39 -5 -3 -9
2 -9 10 0 9 -7 16 -15 16 -8 0 -14 3 -12 8 1 4 -1 8 -5 10 -15 4 -45 37 -41
44 5 10 -28 39 -38 33 -5 -4 -9 0 -9 8 0 8 -7 17 -15 21 -8 3 -15 12 -15 21 0
8 -6 15 -12 15 -17 1 -58 35 -58 49 0 6 -6 10 -12 8 -7 -1 -12 4 -11 11 2 6
-4 12 -12 12 -8 0 -15 8 -15 17 0 9 -3 13 -6 10 -4 -4 -33 20 -64 53 -32 33
-63 60 -69 60 -7 0 -9 5 -6 10 3 6 -1 10 -9 10 -9 0 -16 5 -16 11 0 5 -4 7
-10 4 -5 -3 -10 1 -10 10 0 9 -3 14 -7 12 -10 -6 -34 19 -26 26 3 4 -6 9 -21
13 -14 3 -23 10 -20 15 3 5 -2 9 -10 9 -9 0 -16 7 -16 16 0 8 -4 13 -9 9 -10
-5 -26 9 -50 43 -8 12 -18 19 -23 16 -4 -3 -8 0 -8 5 0 6 -5 11 -11 11 -6 0
-25 15 -41 33 -17 17 -35 33 -39 33 -5 1 -13 2 -18 3 -5 0 -13 10 -16 21 -4
13 -18 23 -36 27 -16 3 -29 9 -29 13 0 14 -35 47 -58 54 -12 4 -20 12 -17 17
4 5 -3 9 -15 9 -12 0 -18 5 -15 10 3 6 0 10 -8 10 -8 0 -17 7 -21 15 -3 8 -12
15 -21 15 -8 0 -15 5 -15 10 0 6 -7 10 -16 10 -8 0 -12 5 -9 10 3 6 -1 10 -9
10 -9 0 -25 9 -35 19 -11 11 -22 17 -25 13 -3 -3 -6 -1 -6 5 0 5 -16 18 -35
29 -19 10 -35 22 -35 26 0 5 -8 8 -17 8 -15 0 -16 2 -3 10 12 8 12 10 -5 10
-23 0 -108 54 -99 63 3 3 -10 9 -30 12 -22 5 -38 14 -41 26 -4 10 -15 19 -26
19 -10 0 -19 4 -19 10 0 5 -11 12 -25 16 -14 3 -25 10 -25 15 0 5 -7 9 -16 9
-8 0 -13 4 -10 9 4 5 -6 12 -22 16 -15 3 -34 15 -42 25 -8 11 -22 20 -32 20
-10 0 -18 4 -18 9 0 5 -14 12 -30 16 -17 4 -28 11 -24 16 3 5 -4 9 -15 9 -11
0 -26 8 -33 19 -7 10 -28 22 -46 25 -17 4 -32 11 -32 14 0 10 -39 33 -64 38
-11 2 -22 8 -24 14 -2 5 -8 10 -14 10 -5 0 -16 7 -25 15 -8 8 -18 13 -23 10
-4 -3 -11 2 -14 11 -3 8 -10 13 -15 10 -5 -4 -16 1 -24 9 -12 11 -17 12 -20 2
-4 -9 -6 -9 -6 1 -1 6 -8 12 -17 12 -8 0 -13 4 -10 9 6 9 -50 27 -69 22 -5 -1
-7 1 -3 5 8 8 -36 34 -57 34 -7 0 -15 7 -19 15 -3 8 -9 15 -13 14 -23 -4 -43
2 -38 11 4 6 -5 10 -19 10 -14 0 -26 5 -26 10 0 6 -8 10 -17 10 -10 0 -27 7
-37 15 -11 8 -26 15 -34 15 -8 0 -26 9 -41 19 -15 11 -43 22 -64 26 -20 4 -34
11 -31 16 3 5 -6 9 -20 9 -14 0 -26 5 -26 10 0 6 -9 10 -19 10 -11 0 -21 4
-23 9 -1 6 -19 13 -38 16 -19 3 -36 10 -38 16 -2 5 -15 9 -28 9 -14 0 -22 4
-19 10 3 6 -5 10 -19 10 -13 0 -26 4 -28 9 -1 6 -19 13 -38 16 -19 3 -37 10
-40 15 -3 5 -20 10 -37 12 -17 1 -29 6 -27 10 3 4 2 8 -3 8 -30 2 -89 13 -93
19 -9 11 -50 31 -65 31 -8 0 -15 6 -15 13 0 8 -4 7 -10 -3 -6 -9 -10 -10 -10
-3 0 7 -21 15 -50 19 -27 4 -50 10 -50 15 0 5 -12 9 -26 9 -14 0 -23 4 -19 10
4 6 -7 11 -24 11 -17 1 -35 3 -41 4 -5 1 -22 3 -36 4 -14 0 -22 5 -19 11 4 6
-7 10 -24 10 -17 0 -31 5 -31 10 0 6 -13 10 -29 10 -17 0 -32 4 -36 10 -3 5
-32 12 -65 16 -33 4 -60 10 -60 13 0 4 -8 7 -18 8 -28 2 -47 8 -52 15 -3 4
-24 9 -47 10 -23 2 -39 6 -37 10 2 3 -24 9 -59 13 -34 4 -66 10 -72 13 -5 4
-19 8 -30 9 -11 2 -27 6 -35 9 -17 7 -27 9 -115 18 -33 3 -61 11 -63 16 -2 6
-8 10 -13 10 -6 0 -7 -4 -4 -10 3 -5 1 -10 -4 -10 -6 0 -11 5 -11 10 0 6 -21
10 -46 10 -30 0 -43 4 -38 11 4 7 -3 10 -17 9 -13 -1 -40 -2 -59 -1 -27 1 -31
4 -20 11 8 5 10 10 5 10 -6 0 -17 -6 -24 -12 -11 -10 -13 -10 -7 0 5 9 -6 12
-46 13 -29 0 -62 2 -73 4 -11 3 -41 5 -67 6 -26 1 -45 5 -43 9 2 4 -2 7 -10 7
-8 0 -11 -5 -8 -10 4 -6 1 -7 -8 -1 -18 11 -34 14 -81 15 -25 1 -35 5 -31 13
4 6 -1 5 -10 -3 -12 -10 -21 -10 -30 -3 -7 6 -22 11 -32 11 -61 -1 -122 5
-139 13 -10 6 -16 6 -13 1 4 -5 0 -10 -8 -10 -8 0 -12 4 -9 9 8 13 -10 10 -25
-4 -11 -10 -13 -10 -7 0 5 8 0 12 -14 12 -14 0 -19 -4 -14 -12 5 -8 1 -8 -10
1 -15 12 -88 15 -439 15 -232 1 -464 0 -515 -2z"/>
<path d="M7705 17090 c-3 -5 -22 -10 -42 -10 -44 0 -103 -20 -103 -35 0 -5 -5
-3 -10 5 -6 9 -10 10 -10 3 0 -7 -16 -15 -36 -19 -25 -5 -32 -9 -22 -15 9 -6
7 -9 -10 -9 -13 0 -20 -4 -17 -10 3 -5 1 -11 -4 -11 -6 -1 -15 -2 -19 -3 -19
-3 -92 -89 -92 -109 0 -18 -2 -19 -10 -7 -8 12 -10 10 -10 -8 0 -13 -4 -20
-10 -17 -6 3 -10 -4 -10 -17 0 -13 -7 -36 -15 -52 -8 -15 -15 -37 -15 -48 0
-10 -4 -17 -9 -14 -4 3 -8 -40 -9 -94 0 -56 4 -100 9 -100 5 0 9 -5 9 -11 0
-5 -5 -7 -11 -4 -13 8 12 -37 26 -47 6 -5 4 -8 -5 -8 -10 0 -11 -3 -4 -8 9 -6
21 -30 29 -62 7 -23 19 -39 26 -34 5 3 9 -1 9 -9 0 -18 35 -59 44 -50 3 3 6 0
6 -7 0 -11 22 -34 67 -70 7 -6 17 -10 23 -10 5 0 10 -4 10 -10 0 -5 8 -10 18
-10 9 0 30 -7 45 -15 16 -8 44 -15 63 -17 19 -1 34 -6 34 -10 0 -5 36 -8 80
-7 56 1 78 5 73 13 -4 6 2 4 12 -4 11 -9 16 -10 11 -2 -5 8 2 12 24 12 18 0
29 4 25 10 -3 6 5 11 19 11 42 2 46 3 54 14 4 6 14 11 22 13 8 2 19 10 23 18
4 8 17 14 27 14 11 0 20 7 20 16 0 8 5 12 10 9 9 -6 14 8 11 28 0 4 6 7 14 7
8 0 15 7 15 15 0 8 4 15 9 15 5 0 13 9 16 20 4 11 11 18 16 14 5 -3 9 -2 8 3
-4 22 2 43 11 38 6 -4 10 5 10 19 0 14 4 26 9 26 11 0 20 49 22 127 1 42 6 60
13 56 7 -5 7 -2 -1 8 -6 8 -11 16 -11 19 1 32 -16 140 -23 140 -5 0 -9 7 -9
15 0 8 -4 15 -10 15 -5 0 -10 6 -10 14 0 8 -5 16 -11 18 -9 3 -15 22 -18 51
-1 5 -5 5 -11 2 -5 -3 -10 1 -10 10 0 9 -4 13 -10 10 -5 -3 -10 -2 -10 4 0 16
-49 61 -66 61 -8 0 -12 5 -9 10 3 6 0 10 -9 10 -8 0 -16 5 -18 10 -2 6 -13 12
-25 13 -13 0 -25 7 -27 14 -3 7 -11 13 -18 13 -9 0 -9 -3 2 -11 13 -9 13 -10
0 -5 -8 3 -23 9 -32 12 -10 4 -18 10 -18 15 0 5 -27 9 -60 9 -33 0 -60 4 -60
10 0 6 -4 10 -9 10 -6 0 -13 -4 -16 -10z"/>
<path d="M9410 17090 c0 -5 -3 -9 -7 -9 -5 1 -35 1 -68 0 -43 -1 -56 -4 -45
-11 11 -7 7 -10 -17 -10 -18 0 -33 -4 -33 -10 0 -5 -11 -10 -24 -10 -14 0 -31
-7 -40 -15 -8 -8 -19 -15 -25 -15 -6 0 -27 -16 -45 -35 -19 -19 -39 -35 -46
-35 -6 0 -8 -5 -5 -10 3 -6 -1 -13 -9 -16 -9 -3 -14 -10 -11 -14 3 -5 -2 -15
-10 -24 -9 -8 -24 -33 -34 -56 -10 -22 -20 -38 -22 -35 -3 2 -6 -7 -7 -21 -1
-14 -7 -34 -12 -45 -25 -46 -7 -258 23 -280 5 -3 8 -9 8 -13 -3 -20 0 -26 9
-21 6 4 10 3 9 -2 -4 -24 3 -45 25 -66 13 -13 27 -33 30 -45 5 -13 16 -22 29
-23 12 0 16 -3 10 -6 -17 -6 3 -27 35 -37 12 -4 20 -12 17 -17 -4 -5 3 -9 14
-9 10 0 21 -5 23 -10 2 -6 17 -13 33 -16 16 -3 32 -10 36 -15 3 -6 9 -10 13
-10 25 3 46 0 42 -7 -3 -5 1 -9 9 -9 8 0 11 5 8 11 -3 6 0 5 8 -2 17 -16
18059 -18 18059 -2 0 6 5 10 11 10 5 0 7 -4 4 -10 -3 -5 10 -3 28 5 19 8 38
11 42 7 5 -4 5 -2 2 4 -4 8 6 14 28 18 19 4 40 15 47 25 7 10 25 21 41 25 15
3 27 11 27 16 0 5 14 22 30 37 17 14 30 35 30 45 0 11 3 17 8 15 4 -3 12 0 18
7 12 13 12 14 21 57 4 22 8 27 14 17 6 -8 9 -2 9 20 0 18 4 31 8 28 8 -5 10 5
12 69 1 19 5 33 9 31 4 -3 7 15 7 39 -1 24 -4 41 -9 38 -5 -3 -8 1 -6 8 5 39
-2 100 -11 94 -6 -4 -10 7 -10 25 0 18 -4 29 -10 25 -9 -5 -15 15 -11 38 1 4
-6 10 -14 13 -8 4 -15 12 -15 19 0 6 -11 24 -25 39 -14 15 -25 31 -25 37 0 5
-7 12 -15 15 -8 4 -13 10 -10 14 3 4 -6 11 -20 14 -14 4 -25 11 -25 16 0 6 -5
10 -11 10 -6 0 -17 7 -25 15 -9 8 -27 15 -40 15 -14 0 -22 4 -19 10 4 6 -7 10
-24 10 -17 0 -31 4 -31 10 0 5 -3 9 -7 9 -28 -4 -113 2 -110 9 3 4 -15 7 -39
8 -27 0 -40 -3 -32 -8 9 -5 7 -7 -7 -5 -11 1 -25 6 -32 10 -6 4 -14 1 -16 -5
-4 -10 -6 -9 -6 1 -1 11 -4 11 -16 1 -12 -10 -15 -10 -15 1 0 11 -2 11 -10 -1
-6 -10 -10 -11 -10 -2 0 6 -5 12 -11 12 -5 0 -8 -4 -5 -9 4 -5 -2 -8 -11 -6
-10 2 -18 4 -18 5 0 2 -111 3 -247 4 -135 1 -241 -2 -235 -6 15 -10 -24 -5
-40 5 -6 4 -14 1 -16 -5 -4 -10 -6 -9 -6 1 -1 11 -4 11 -16 1 -12 -10 -15 -10
-15 1 0 11 -2 11 -10 -1 -6 -10 -10 -11 -10 -2 0 6 -5 12 -11 12 -5 0 -8 -4
-5 -9 4 -5 -2 -8 -11 -6 -10 2 -18 4 -18 5 0 2 -111 3 -247 4 -135 1 -241 -2
-235 -6 15 -10 -24 -5 -40 5 -6 4 -14 1 -16 -5 -4 -10 -6 -9 -6 1 -1 11 -4 11
-16 1 -12 -10 -15 -10 -15 1 0 11 -2 11 -10 -1 -6 -10 -10 -11 -10 -2 0 6 -5
12 -11 12 -5 0 -8 -4 -5 -9 4 -5 -2 -8 -11 -6 -10 2 -18 4 -18 5 0 2 -75 3
-167 4 -92 1 -161 -2 -155 -6 15 -10 -24 -5 -40 5 -6 4 -14 1 -16 -5 -4 -10
-6 -9 -6 1 -1 11 -4 11 -16 1 -12 -10 -15 -10 -15 1 0 11 -2 11 -10 -1 -6 -10
-10 -11 -10 -2 0 6 -5 12 -11 12 -5 0 -8 -4 -5 -9 4 -5 -2 -8 -11 -6 -10 2
-18 4 -18 5 0 1 -39 3 -87 4 -48 1 -82 -2 -75 -6 15 -10 -23 -5 -40 5 -6 4
-14 1 -16 -5 -4 -10 -6 -9 -6 1 -1 11 -4 11 -16 1 -12 -10 -15 -10 -15 1 0 11
-2 11 -10 -1 -6 -10 -10 -11 -10 -2 0 6 -5 12 -11 12 -5 0 -8 -4 -5 -9 4 -5
-2 -8 -11 -6 -10 2 -18 4 -18 5 0 1 -22 3 -48 4 -30 2 -43 0 -35 -5 9 -7 7 -8
-7 -6 -11 1 -25 6 -32 10 -6 4 -14 1 -16 -5 -4 -10 -6 -9 -6 1 -1 11 -4 11
-16 1 -12 -10 -15 -10 -15 1 0 11 -2 11 -10 -1 -7 -11 -10 -11 -10 -2 0 8 -5
10 -12 5 -17 -10 -57 -16 -41 -5 6 4 -82 7 -197 7 -114 0 -203 -3 -197 -7 15
-10 -24 -5 -40 5 -6 4 -14 1 -16 -5 -4 -10 -6 -9 -6 1 -1 11 -4 11 -16 1 -12
-10 -15 -10 -15 1 0 11 -2 11 -10 -1 -6 -10 -10 -11 -10 -2 0 6 -5 12 -11 12
-5 0 -8 -4 -5 -9 4 -5 -2 -8 -11 -6 -10 2 -18 4 -18 5 0 1 -57 3 -127 4 -70 1
-122 -2 -115 -6 15 -10 -23 -5 -40 5 -6 4 -14 1 -16 -5 -4 -10 -6 -9 -6 1 -1
11 -4 11 -16 1 -12 -10 -15 -10 -15 1 0 11 -2 11 -10 -1 -7 -11 -10 -11 -10
-2 0 8 -5 10 -12 5 -17 -10 -57 -16 -41 -5 6 4 -46 7 -117 7 -71 0 -123 -3
-117 -7 15 -10 -24 -5 -40 5 -6 4 -14 1 -16 -5 -4 -10 -6 -9 -6 1 -1 11 -4 11
-16 1 -12 -10 -15 -10 -15 1 0 11 -2 11 -10 -1 -6 -10 -10 -11 -10 -2 0 6 -5
12 -11 12 -5 0 -8 -4 -5 -9 4 -5 -2 -8 -11 -6 -10 2 -18 4 -18 5 0 1 -39 3
-87 4 -48 1 -82 -2 -75 -6 15 -10 -23 -5 -40 5 -6 4 -14 1 -16 -5 -4 -10 -6
-9 -6 1 -1 11 -4 11 -16 1 -12 -10 -15 -10 -15 1 0 11 -2 11 -10 -1 -6 -10
-10 -11 -10 -2 0 6 -5 12 -11 12 -5 0 -8 -4 -5 -9 4 -5 -2 -8 -11 -6 -10 2
-18 4 -18 5 0 1 -22 3 -48 4 -30 2 -43 0 -35 -5 9 -7 7 -8 -7 -6 -11 1 -25 6
-32 10 -6 4 -14 1 -16 -5 -4 -10 -6 -9 -6 1 -1 11 -4 11 -16 1 -12 -10 -15
-10 -15 1 0 11 -2 11 -10 -1 -7 -11 -10 -11 -10 -2 0 8 -5 10 -12 5 -17 -10
-57 -16 -41 -5 6 4 -82 7 -197 7 -114 0 -203 -3 -197 -7 15 -10 -24 -5 -40 5
-6 4 -14 1 -16 -5 -4 -10 -6 -9 -6 1 -1 11 -4 11 -16 1 -12 -10 -15 -10 -15 1
0 11 -2 11 -10 -1 -6 -10 -10 -11 -10 -2 0 6 -5 12 -11 12 -5 0 -8 -4 -5 -9 4
-5 -2 -8 -11 -6 -10 2 -18 4 -18 5 0 1 -57 3 -127 4 -70 1 -122 -2 -115 -6 15
-10 -23 -5 -40 5 -6 4 -14 1 -16 -5 -4 -10 -6 -9 -6 1 -1 11 -4 11 -16 1 -12
-10 -15 -10 -15 1 0 11 -2 11 -10 -1 -7 -11 -10 -11 -10 -2 0 8 -5 10 -12 5
-17 -10 -57 -16 -41 -5 6 4 -46 7 -117 7 -71 0 -123 -3 -117 -7 15 -10 -24 -5
-40 5 -6 4 -14 1 -16 -5 -4 -10 -6 -9 -6 1 -1 11 -4 11 -16 1 -12 -10 -15 -10
-15 1 0 11 -2 11 -10 -1 -6 -10 -10 -11 -10 -2 0 6 -5 12 -11 12 -5 0 -8 -4
-5 -9 4 -5 -2 -8 -11 -6 -10 2 -18 4 -18 5 0 1 -39 3 -87 4 -48 1 -82 -2 -75
-6 15 -10 -23 -5 -40 5 -6 4 -14 1 -16 -5 -4 -10 -6 -9 -6 1 -1 11 -4 11 -16
1 -12 -10 -15 -10 -15 1 0 11 -2 11 -10 -1 -6 -10 -10 -11 -10 -2 0 6 -5 12
-11 12 -5 0 -8 -4 -5 -9 4 -5 -2 -8 -11 -6 -10 2 -18 4 -18 5 0 1 -22 3 -48 4
-30 2 -43 0 -35 -5 9 -7 7 -8 -7 -6 -11 1 -25 6 -32 10 -6 4 -14 1 -16 -5 -4
-10 -6 -9 -6 1 -1 11 -4 11 -16 1 -12 -10 -15 -10 -15 1 0 11 -2 11 -10 -1 -7
-11 -10 -11 -10 -2 0 8 -5 10 -12 5 -17 -10 -57 -16 -41 -5 6 4 -82 7 -197 7
-114 0 -203 -3 -197 -7 15 -10 -24 -5 -40 5 -6 4 -14 1 -16 -5 -4 -10 -6 -9
-6 1 -1 11 -4 11 -16 1 -12 -10 -15 -10 -15 1 0 11 -2 11 -10 -1 -6 -10 -10
-11 -10 -2 0 6 -5 12 -11 12 -5 0 -8 -4 -5 -9 4 -5 -2 -8 -11 -6 -10 2 -18 4
-18 5 0 1 -57 3 -127 4 -70 1 -122 -2 -115 -6 15 -10 -23 -5 -40 5 -6 4 -14 1
-16 -5 -4 -10 -6 -9 -6 1 -1 11 -4 11 -16 1 -12 -10 -15 -10 -15 1 0 11 -2 11
-10 -1 -7 -11 -10 -11 -10 -2 0 8 -5 10 -12 5 -17 -10 -57 -16 -41 -5 6 4 -46
7 -117 7 -71 0 -123 -3 -117 -7 15 -10 -24 -5 -40 5 -6 4 -14 1 -16 -5 -4 -10
-6 -9 -6 1 -1 11 -4 11 -16 1 -12 -10 -15 -10 -15 1 0 11 -2 11 -10 -1 -6 -10
-10 -11 -10 -2 0 6 -5 12 -11 12 -5 0 -8 -4 -5 -9 4 -5 -2 -8 -11 -6 -10 2
-18 4 -18 5 0 1 -39 3 -87 4 -48 1 -82 -2 -75 -6 15 -10 -23 -5 -40 5 -6 4
-14 1 -16 -5 -4 -10 -6 -9 -6 1 -1 11 -4 11 -16 1 -12 -10 -15 -10 -15 1 0 11
-2 11 -10 -1 -6 -10 -10 -11 -10 -2 0 6 -5 12 -11 12 -5 0 -8 -4 -5 -9 4 -5
-2 -8 -11 -6 -10 2 -18 4 -18 5 0 1 -22 3 -48 4 -30 2 -43 0 -35 -5 9 -7 7 -8
-7 -6 -11 1 -25 6 -32 10 -6 4 -14 1 -16 -5 -4 -10 -6 -9 -6 1 -1 11 -4 11
-16 1 -12 -10 -15 -10 -15 1 0 11 -2 11 -10 -1 -7 -11 -10 -11 -10 -2 0 8 -5
10 -12 5 -17 -10 -57 -16 -41 -5 6 4 -82 7 -197 7 -114 0 -203 -3 -197 -7 15
-10 -24 -5 -40 5 -6 4 -14 1 -16 -5 -4 -10 -6 -9 -6 1 -1 11 -4 11 -16 1 -12
-10 -15 -10 -15 1 0 11 -2 11 -10 -1 -6 -10 -10 -11 -10 -2 0 6 -5 12 -11 12
-5 0 -8 -4 -5 -9 4 -5 -2 -8 -11 -6 -10 2 -18 4 -18 5 0 1 -57 3 -127 4 -70 1
-122 -2 -115 -6 15 -10 -23 -5 -40 5 -6 4 -14 1 -16 -5 -4 -10 -6 -9 -6 1 -1
11 -4 11 -16 1 -12 -10 -15 -10 -15 1 0 11 -2 11 -10 -1 -7 -11 -10 -11 -10
-2 0 8 -5 10 -12 5 -17 -10 -57 -16 -41 -5 6 4 -46 7 -117 7 -71 0 -123 -3
-117 -7 15 -10 -24 -5 -40 5 -6 4 -14 1 -16 -5 -4 -10 -6 -9 -6 1 -1 11 -4 11
-16 1 -12 -10 -15 -10 -15 1 0 11 -2 11 -10 -1 -6 -10 -10 -11 -10 -2 0 6 -5
12 -11 12 -5 0 -8 -4 -5 -9 4 -5 -2 -8 -11 -6 -10 2 -18 4 -18 5 0 1 -39 3
-87 4 -48 1 -82 -2 -75 -6 15 -10 -23 -5 -40 5 -6 4 -14 1 -16 -5 -4 -10 -6
-9 -6 1 -1 11 -4 11 -16 1 -12 -10 -15 -10 -15 1 0 11 -2 11 -10 -1 -6 -10
-10 -11 -10 -2 0 6 -5 12 -11 12 -5 0 -8 -4 -5 -9 4 -5 -2 -8 -11 -6 -10 2
-18 4 -18 5 0 1 -22 3 -48 4 -30 2 -43 0 -35 -5 9 -7 7 -8 -7 -6 -11 1 -25 6
-32 10 -6 4 -14 1 -16 -5 -4 -10 -6 -9 -6 1 -1 11 -4 11 -16 1 -12 -10 -15
-10 -15 1 0 11 -2 11 -10 -1 -7 -11 -10 -11 -10 -2 0 8 -5 10 -12 5 -17 -10
-57 -16 -41 -5 6 4 -82 7 -197 7 -114 0 -203 -3 -197 -7 15 -10 -24 -5 -40 5
-6 4 -14 1 -16 -5 -4 -10 -6 -9 -6 1 -1 11 -4 11 -16 1 -12 -10 -15 -10 -15 1
0 11 -2 11 -10 -1 -6 -10 -10 -11 -10 -2 0 6 -5 12 -11 12 -5 0 -8 -4 -5 -9 4
-5 -2 -8 -11 -6 -10 2 -18 4 -18 5 0 1 -57 3 -127 4 -70 1 -122 -2 -115 -6 15
-10 -23 -5 -40 5 -6 4 -14 1 -16 -5 -4 -10 -6 -9 -6 1 -1 11 -4 11 -16 1 -12
-10 -15 -10 -15 1 0 11 -2 11 -10 -1 -7 -11 -10 -11 -10 -2 0 8 -5 10 -12 5
-17 -10 -57 -16 -41 -5 6 4 -46 7 -117 7 -71 0 -123 -3 -117 -7 15 -10 -24 -5
-40 5 -6 4 -14 1 -16 -5 -4 -10 -6 -9 -6 1 -1 11 -4 11 -16 1 -12 -10 -15 -10
-15 1 0 11 -2 11 -10 -1 -6 -10 -10 -11 -10 -2 0 6 -5 12 -11 12 -5 0 -8 -4
-5 -9 4 -5 -2 -8 -11 -6 -10 2 -18 4 -18 5 0 1 -39 3 -87 4 -48 1 -82 -2 -75
-6 15 -10 -23 -5 -40 5 -6 4 -14 1 -16 -5 -4 -10 -6 -9 -6 1 -1 11 -4 11 -16
1 -12 -10 -15 -10 -15 1 0 11 -2 11 -10 -1 -6 -10 -10 -11 -10 -2 0 6 -5 12
-11 12 -5 0 -8 -4 -5 -9 4 -5 -2 -8 -11 -6 -10 2 -18 4 -18 5 0 2 -75 3 -167
4 -92 1 -161 -2 -155 -6 15 -10 -24 -5 -40 5 -6 4 -14 1 -16 -5 -4 -10 -6 -9
-6 1 -1 11 -4 11 -16 1 -12 -10 -15 -10 -15 1 0 11 -2 11 -10 -1 -6 -10 -10
-11 -10 -2 0 6 -5 12 -11 12 -5 0 -8 -4 -5 -9 4 -5 -2 -8 -11 -6 -10 2 -18 4
-18 5 0 2 -111 3 -247 4 -135 1 -241 -2 -235 -6 15 -10 -24 -5 -40 5 -6 4 -14
1 -16 -5 -4 -10 -6 -9 -6 1 -1 11 -4 11 -16 1 -12 -10 -15 -10 -15 1 0 11 -2
11 -10 -1 -6 -10 -10 -11 -10 -2 0 6 -5 12 -11 12 -5 0 -8 -4 -5 -9 4 -5 -2
-8 -11 -6 -10 2 -18 4 -18 5 0 2 -111 3 -247 4 -135 1 -241 -2 -235 -6 15 -10
-24 -5 -40 5 -6 4 -14 1 -16 -5 -4 -10 -6 -9 -6 1 -1 11 -4 11 -16 1 -12 -10
-15 -10 -15 1 0 11 -2 11 -10 -1 -6 -10 -10 -11 -10 -2 0 6 -5 12 -11 12 -5 0
-8 -4 -5 -9 4 -5 -2 -8 -11 -6 -10 2 -18 4 -18 5 0 2 -111 3 -247 4 -135 1
-241 -2 -235 -6 15 -10 -24 -5 -40 5 -6 4 -14 1 -16 -5 -4 -10 -6 -9 -6 1 -1
11 -4 11 -16 1 -12 -10 -15 -10 -15 1 0 11 -2 11 -10 -1 -6 -10 -10 -11 -10
-2 0 6 -5 12 -11 12 -5 0 -8 -4 -5 -9 4 -5 -2 -8 -11 -6 -10 2 -18 4 -18 5 0
2 -111 3 -247 4 -135 1 -241 -2 -235 -6 15 -10 -24 -5 -40 5 -6 4 -14 1 -16
-5 -4 -10 -6 -9 -6 1 -1 11 -4 11 -16 1 -12 -10 -15 -10 -15 1 0 11 -2 11 -10
-1 -6 -10 -10 -11 -10 -2 0 6 -5 12 -11 12 -5 0 -8 -4 -5 -9 4 -5 -2 -8 -11
-6 -10 2 -18 4 -18 5 0 2 -111 3 -247 4 -135 1 -241 -2 -235 -6 15 -10 -24 -5
-40 5 -6 4 -14 1 -16 -5 -4 -10 -6 -9 -6 1 -1 11 -4 11 -16 1 -12 -10 -15 -10
-15 1 0 11 -2 11 -10 -1 -6 -10 -10 -11 -10 -2 0 6 -5 12 -11 12 -5 0 -8 -4
-5 -9 4 -5 -2 -8 -11 -6 -10 2 -18 4 -18 5 0 2 -111 3 -247 4 -135 1 -241 -2
-235 -6 15 -10 -24 -5 -40 5 -6 4 -14 1 -16 -5 -4 -10 -6 -9 -6 1 -1 11 -4 11
-16 1 -12 -10 -15 -10 -15 1 0 11 -2 11 -10 -1 -6 -10 -10 -11 -10 -2 0 6 -5
12 -11 12 -5 0 -8 -4 -5 -9 4 -5 -2 -8 -11 -6 -10 2 -18 4 -18 5 0 2 -111 3
-247 4 -135 1 -241 -2 -235 -6 15 -10 -24 -5 -40 5 -6 4 -14 1 -16 -5 -4 -10
-6 -9 -6 1 -1 11 -4 11 -16 1 -12 -10 -15 -10 -15 1 0 11 -2 11 -10 -1 -6 -10
-10 -11 -10 -2 0 6 -5 12 -11 12 -5 0 -8 -4 -5 -9 4 -5 -2 -8 -11 -6 -10 2
-18 4 -18 5 0 1 -57 3 -127 4 -70 1 -122 -2 -115 -6 15 -10 -23 -5 -40 5 -6 4
-14 1 -16 -5 -4 -10 -6 -9 -6 1 -1 11 -4 11 -16 1 -12 -10 -15 -10 -15 1 0 11
-2 11 -10 -1 -7 -11 -10 -11 -10 -2 0 8 -5 10 -12 5 -17 -10 -57 -16 -41 -5 6
4 -82 7 -197 7 -114 0 -203 -3 -197 -7 15 -10 -24 -5 -40 5 -6 4 -14 1 -16 -5
-4 -10 -6 -9 -6 1 -1 11 -4 11 -16 1 -12 -10 -15 -10 -15 1 0 11 -2 11 -10 -1
-6 -10 -10 -11 -10 -2 0 6 -5 12 -11 12 -5 0 -8 -4 -5 -9 4 -5 -2 -8 -11 -6
-10 2 -18 4 -18 5 0 1 -8 3 -18 5 -9 2 -15 0 -13 -4 3 -4 -4 -7 -14 -7 -10 0
-16 4 -14 8 3 4 0 8 -5 8 -6 0 -11 -4 -11 -10z"/>
<path d="M4048 14931 c-2 -8 -51 -15 -138 -20 -13 -1 -13 -2 0 -11 12 -8 9
-10 -12 -10 -16 0 -28 -4 -28 -10 0 -5 -9 -10 -19 -10 -10 0 -21 -7 -25 -15
-3 -8 -12 -15 -19 -15 -19 0 -89 -69 -81 -81 3 -5 0 -8 -7 -7 -7 2 -13 -2 -14
-8 0 -6 -8 -18 -18 -28 -9 -10 -14 -22 -11 -28 4 -7 2 -8 -4 -4 -7 4 -12 1
-12 -9 0 -9 -4 -14 -8 -11 -5 3 -9 0 -10 -7 -5 -49 -16 -93 -23 -95 -6 -2 -4
-11 3 -20 10 -12 10 -14 1 -8 -10 5 -13 -12 -13 -78 0 -47 5 -88 10 -91 6 -3
10 -19 10 -35 0 -16 5 -41 12 -57 6 -15 12 -31 12 -34 1 -3 9 -13 19 -23 9
-10 14 -22 11 -28 -4 -7 -2 -8 4 -4 7 4 14 -3 18 -19 3 -14 9 -24 11 -21 7 7
33 -20 33 -33 0 -6 5 -11 11 -11 15 0 39 -26 32 -34 -4 -3 4 -6 16 -6 12 0 20
-4 17 -9 -4 -5 7 -12 24 -16 16 -4 30 -11 30 -16 0 -5 8 -9 18 -9 10 0 23 -5
30 -12 8 -8 56 -13 134 -14 130 -3 181 3 172 17 -3 5 6 9 20 9 14 0 26 4 26 9
0 5 14 13 32 16 34 8 61 28 51 39 -4 3 0 6 9 6 19 0 51 34 41 44 -5 4 -3 7 2
6 23 -5 35 1 35 18 0 10 9 25 20 35 12 10 18 23 14 29 -4 7 -3 8 4 4 8 -5 12
1 12 16 0 18 2 20 10 8 8 -12 10 -11 11 8 1 12 3 27 4 32 1 6 3 19 4 31 0 11
5 18 9 15 5 -3 10 18 11 47 1 28 8 58 14 66 9 12 9 13 0 7 -10 -5 -13 10 -13
66 0 43 -4 68 -9 60 -5 -9 -10 6 -14 40 -4 29 -11 54 -17 56 -5 2 -10 8 -10
13 0 6 -11 22 -25 37 -14 15 -25 30 -25 34 0 14 -77 86 -99 93 -12 3 -21 11
-21 16 0 5 -9 9 -20 9 -11 0 -20 5 -20 10 0 6 -7 10 -16 10 -8 0 -13 4 -10 8
3 5 0 9 -7 10 -78 5 -147 17 -147 23 0 5 -5 9 -11 9 -5 0 -8 -4 -5 -9 7 -10
-13 -9 -31 2 -6 4 -13 3 -15 -2z"/>
<path d="M5748 14931 c-1 -4 -37 -11 -78 -15 -41 -3 -76 -11 -78 -16 -2 -6
-13 -10 -23 -10 -11 0 -17 -4 -14 -10 3 -5 -3 -10 -14 -10 -12 0 -21 -4 -21
-9 0 -5 -11 -12 -24 -15 -14 -3 -27 -15 -31 -26 -3 -10 -15 -22 -25 -25 -10
-3 -21 -14 -24 -23 -3 -9 -20 -32 -37 -50 -17 -18 -33 -48 -36 -67 -3 -19 -10
-32 -15 -29 -4 3 -8 2 -7 -3 1 -4 1 -21 0 -38 -1 -23 -3 -27 -11 -15 -5 8 -10
10 -10 5 0 -6 6 -17 13 -24 10 -11 10 -13 0 -7 -10 5 -13 -6 -14 -41 -2 -85 3
-128 14 -142 10 -12 9 -13 -2 -6 -11 6 -11 3 2 -14 8 -13 13 -30 10 -39 -4 -9
-2 -13 4 -9 6 4 13 -9 17 -33 3 -22 11 -40 16 -40 6 0 10 -9 10 -19 0 -11 9
-23 20 -26 18 -6 24 -17 21 -37 0 -5 4 -8 10 -8 5 0 7 -5 3 -12 -4 -6 -3 -8 3
-5 6 4 29 -11 52 -33 23 -23 55 -43 71 -47 17 -3 30 -9 30 -14 0 -5 6 -9 14
-9 8 0 16 -6 18 -12 4 -10 1347 -13 6674 -13 3668 0 6684 2 6702 5 17 2 32 8
32 12 0 4 7 8 15 8 8 0 15 5 15 11 0 5 4 8 9 4 5 -3 12 -1 16 5 3 5 13 10 21
10 18 0 46 25 37 34 -4 3 3 6 15 6 13 0 22 6 22 15 0 8 5 14 12 12 7 -1 13 5
13 13 0 8 6 14 13 13 11 -3 14 4 11 24 0 3 6 10 15 15 9 5 16 17 16 26 0 9 9
23 20 30 12 7 20 23 20 38 0 14 4 23 9 19 8 -5 29 126 23 148 -1 4 3 7 8 7 6
0 10 5 10 11 0 5 -5 7 -11 3 -7 -4 -7 1 1 16 8 15 8 20 1 16 -15 -10 -14 7 2
23 6 8 7 11 1 8 -8 -5 -14 13 -18 53 -4 33 -11 60 -16 60 -6 0 -10 12 -10 26
0 14 -4 23 -10 19 -5 -3 -10 2 -10 13 0 40 -182 202 -227 202 -14 0 -15 2 -5
9 14 8 -52 21 -110 21 -21 0 -27 4 -22 13 5 7 0 6 -11 -3 -11 -9 -16 -10 -11
-2 9 16 -6 16 -23 0 -11 -11 -12 -10 -6 2 8 13 7 13 -8 1 -14 -11 -17 -11 -17
0 0 11 -2 11 -10 -1 -8 -12 -10 -12 -10 -1 0 11 -3 11 -17 0 -11 -10 -14 -10
-9 -1 4 6 2 12 -3 12 -6 0 -11 -4 -11 -10 0 -5 -5 -10 -11 -10 -5 0 -8 3 -6 8
3 4 -104 7 -238 7 -134 0 -238 -3 -232 -7 7 -5 3 -7 -10 -5 -12 2 -26 6 -29
10 -4 4 -14 1 -22 -6 -13 -10 -14 -9 -7 3 8 13 7 13 -8 1 -14 -11 -17 -11 -17
0 0 11 -2 11 -10 -1 -8 -12 -10 -12 -10 -1 0 11 -3 11 -17 0 -11 -10 -14 -10
-9 -1 4 6 2 12 -3 12 -6 0 -11 -4 -11 -10 0 -5 -5 -10 -11 -10 -5 0 -8 3 -6 8
3 4 -50 7 -118 7 -68 0 -118 -3 -112 -7 15 -10 -24 -5 -40 5 -6 4 -14 1 -16
-5 -4 -10 -6 -9 -6 1 -1 11 -4 11 -16 1 -12 -10 -15 -10 -15 1 0 11 -2 11 -10
-1 -9 -13 -10 -13 -10 0 0 13 -1 13 -10 0 -9 -13 -10 -13 -10 0 0 13 -1 13
-10 0 -7 -11 -10 -11 -10 -2 0 8 -5 10 -12 5 -17 -10 -57 -16 -41 -5 6 4 -73
7 -177 7 -103 0 -183 -3 -177 -7 7 -5 3 -7 -10 -5 -12 2 -26 6 -29 10 -4 4
-14 1 -22 -6 -13 -10 -14 -9 -7 3 8 13 7 13 -8 1 -14 -11 -17 -11 -17 0 0 11
-2 11 -10 -1 -8 -12 -10 -12 -10 -1 0 11 -3 11 -17 0 -11 -10 -14 -10 -9 -1 4
6 2 12 -3 12 -6 0 -11 -4 -11 -10 0 -5 -5 -10 -11 -10 -5 0 -8 3 -6 8 3 4 -50
7 -118 7 -68 0 -118 -3 -112 -7 15 -10 -24 -5 -40 5 -6 4 -14 1 -16 -5 -4 -10
-6 -9 -6 1 -1 11 -4 11 -16 1 -12 -10 -15 -10 -15 1 0 11 -2 11 -10 -1 -9 -13
-10 -13 -10 0 0 13 -1 13 -10 0 -9 -13 -10 -13 -10 0 0 13 -1 13 -10 0 -7 -11
-10 -11 -10 -2 0 8 -5 10 -12 5 -17 -10 -57 -16 -41 -5 6 4 -19 8 -57 8 -38 0
-64 -4 -57 -8 15 -10 -23 -5 -40 5 -6 4 -14 1 -16 -5 -4 -10 -6 -9 -6 1 -1 11
-4 11 -16 1 -12 -10 -15 -10 -15 1 0 11 -2 11 -10 -1 -9 -13 -10 -13 -10 0 0
13 -1 13 -10 0 -9 -13 -10 -13 -10 0 0 13 -1 13 -10 0 -7 -11 -10 -11 -10 -2
0 8 -5 10 -12 5 -17 -10 -57 -16 -41 -5 6 4 -73 7 -177 7 -103 0 -183 -3 -177
-7 7 -5 3 -7 -10 -5 -12 2 -26 6 -29 10 -4 4 -14 1 -22 -6 -13 -10 -14 -9 -7
3 8 13 7 13 -8 1 -14 -11 -17 -11 -17 0 0 11 -2 11 -10 -1 -8 -12 -10 -12 -10
-1 0 11 -3 11 -17 0 -11 -10 -14 -10 -9 -1 4 6 2 12 -3 12 -6 0 -11 -4 -11
-10 0 -5 -5 -10 -11 -10 -5 0 -8 3 -6 8 3 4 -50 7 -118 7 -68 0 -118 -3 -112
-7 15 -10 -24 -5 -40 5 -6 4 -14 1 -16 -5 -4 -10 -6 -9 -6 1 -1 11 -4 11 -16
1 -12 -10 -15 -10 -15 1 0 11 -2 11 -10 -1 -9 -13 -10 -13 -10 0 0 13 -1 13
-10 0 -9 -13 -10 -13 -10 0 0 13 -1 13 -10 0 -7 -11 -10 -11 -10 -2 0 8 -5 10
-12 5 -17 -10 -57 -16 -41 -5 6 4 -37 7 -97 7 -60 0 -103 -3 -97 -7 7 -5 3 -7
-10 -5 -12 2 -26 6 -29 10 -4 4 -14 1 -22 -6 -13 -10 -14 -9 -7 3 8 13 7 13
-8 1 -14 -11 -17 -11 -17 0 0 11 -2 11 -10 -1 -8 -12 -10 -12 -10 -1 0 11 -3
11 -17 0 -11 -10 -14 -10 -9 -1 4 6 2 12 -3 12 -6 0 -11 -4 -11 -10 0 -5 -5
-10 -11 -10 -5 0 -8 3 -6 8 3 4 -86 7 -198 7 -112 0 -198 -3 -192 -7 15 -10
-24 -5 -40 5 -6 4 -14 1 -16 -5 -4 -10 -6 -9 -6 1 -1 11 -4 11 -16 1 -12 -10
-15 -10 -15 1 0 11 -2 11 -10 -1 -9 -13 -10 -13 -10 0 0 13 -1 13 -10 0 -9
-13 -10 -13 -10 0 0 13 -1 13 -10 0 -7 -11 -10 -11 -10 -2 0 8 -5 10 -12 5
-17 -10 -57 -16 -41 -5 6 4 -73 7 -177 7 -103 0 -183 -3 -177 -7 7 -5 3 -7
-10 -5 -12 2 -26 6 -29 10 -4 4 -14 1 -22 -6 -13 -10 -14 -9 -7 3 8 13 7 13
-8 1 -14 -11 -17 -11 -17 0 0 11 -2 11 -10 -1 -8 -12 -10 -12 -10 -1 0 11 -3
11 -17 0 -11 -10 -14 -10 -9 -1 4 6 2 12 -3 12 -6 0 -11 -4 -11 -10 0 -5 -5
-10 -11 -10 -5 0 -8 3 -6 8 3 4 -50 7 -118 7 -68 0 -118 -3 -112 -7 15 -10
-24 -5 -40 5 -6 4 -14 1 -16 -5 -4 -10 -6 -9 -6 1 -1 11 -4 11 -16 1 -12 -10
-15 -10 -15 1 0 11 -2 11 -10 -1 -9 -13 -10 -13 -10 0 0 13 -1 13 -10 0 -9
-13 -10 -13 -10 0 0 13 -1 13 -10 0 -7 -11 -10 -11 -10 -2 0 8 -5 10 -12 5
-17 -10 -57 -16 -41 -5 6 4 -37 7 -97 7 -60 0 -103 -3 -97 -7 7 -5 3 -7 -10
-5 -12 2 -26 6 -29 10 -4 4 -14 1 -22 -6 -13 -10 -14 -9 -7 3 8 13 7 13 -8 1
-14 -11 -17 -11 -17 0 0 11 -2 11 -10 -1 -8 -12 -10 -12 -10 -1 0 11 -3 11
-17 0 -11 -10 -14 -10 -9 -1 4 6 2 12 -3 12 -6 0 -11 -4 -11 -10 0 -5 -5 -10
-11 -10 -5 0 -8 3 -6 8 3 4 -104 7 -238 7 -134 0 -238 -3 -232 -7 7 -5 3 -7
-10 -5 -12 2 -26 6 -29 10 -4 4 -14 1 -22 -6 -13 -10 -14 -9 -7 3 8 13 7 13
-8 1 -14 -11 -17 -11 -17 0 0 11 -2 11 -10 -1 -8 -12 -10 -12 -10 -1 0 11 -3
11 -17 0 -11 -10 -14 -10 -9 -1 4 6 2 12 -3 12 -6 0 -11 -4 -11 -10 0 -5 -5
-10 -11 -10 -5 0 -8 3 -6 8 3 4 -86 7 -198 7 -112 0 -198 -3 -192 -7 15 -10
-24 -5 -40 5 -6 4 -14 1 -16 -5 -4 -10 -6 -9 -6 1 -1 11 -4 11 -16 1 -12 -10
-15 -10 -15 1 0 11 -2 11 -10 -1 -9 -13 -10 -13 -10 0 0 13 -1 13 -10 0 -9
-13 -10 -13 -10 0 0 13 -1 13 -10 0 -7 -11 -10 -11 -10 -2 0 8 -5 10 -12 5
-17 -10 -57 -16 -41 -5 6 4 -73 7 -177 7 -103 0 -183 -3 -177 -7 7 -5 3 -7
-10 -5 -12 2 -26 6 -29 10 -4 4 -14 1 -22 -6 -13 -10 -14 -9 -7 3 8 13 7 13
-8 1 -14 -11 -17 -11 -17 0 0 11 -2 11 -10 -1 -8 -12 -10 -12 -10 -1 0 11 -3
11 -17 0 -11 -10 -14 -10 -9 -1 4 6 2 12 -3 12 -6 0 -11 -4 -11 -10 0 -5 -5
-10 -11 -10 -5 0 -8 3 -6 8 3 4 -50 7 -118 7 -68 0 -118 -3 -112 -7 15 -10
-24 -5 -40 5 -6 4 -14 1 -16 -5 -4 -10 -6 -9 -6 1 -1 11 -4 11 -16 1 -12 -10
-15 -10 -15 1 0 11 -2 11 -10 -1 -9 -13 -10 -13 -10 0 0 13 -1 13 -10 0 -9
-13 -10 -13 -10 0 0 13 -1 13 -10 0 -7 -11 -10 -11 -10 -2 0 8 -5 10 -12 5
-17 -10 -57 -16 -41 -5 6 4 -37 7 -97 7 -60 0 -103 -3 -97 -7 7 -5 3 -7 -10
-5 -12 2 -26 6 -29 10 -4 4 -14 1 -22 -6 -13 -10 -14 -9 -7 3 8 13 7 13 -8 1
-14 -11 -17 -11 -17 0 0 11 -2 11 -10 -1 -8 -12 -10 -12 -10 -1 0 11 -3 11
-17 0 -11 -10 -14 -10 -9 -1 4 6 2 12 -3 12 -6 0 -11 -4 -11 -10 0 -5 -5 -10
-11 -10 -5 0 -8 3 -6 8 3 4 -86 7 -198 7 -112 0 -198 -3 -192 -7 15 -10 -24
-5 -40 5 -6 4 -14 1 -16 -5 -4 -10 -6 -9 -6 1 -1 11 -4 11 -16 1 -12 -10 -15
-10 -15 1 0 11 -2 11 -10 -1 -9 -13 -10 -13 -10 0 0 13 -1 13 -10 0 -9 -13
-10 -13 -10 0 0 13 -1 13 -10 0 -7 -11 -10 -11 -10 -2 0 8 -5 10 -12 5 -17
-10 -57 -16 -41 -5 6 4 -73 7 -177 7 -103 0 -183 -3 -177 -7 7 -5 3 -7 -10 -5
-12 2 -26 6 -29 10 -4 4 -14 1 -22 -6 -13 -10 -14 -9 -7 3 8 13 7 13 -8 1 -14
-11 -17 -11 -17 0 0 11 -2 11 -10 -1 -8 -12 -10 -12 -10 -1 0 11 -3 11 -17 0
-11 -10 -14 -10 -9 -1 4 6 2 12 -3 12 -6 0 -11 -4 -11 -10 0 -5 -5 -10 -11
-10 -5 0 -8 3 -6 8 3 4 -50 7 -118 7 -68 0 -118 -3 -112 -7 15 -10 -24 -5 -40
5 -6 4 -14 1 -16 -5 -4 -10 -6 -9 -6 1 -1 11 -4 11 -16 1 -12 -10 -15 -10 -15
1 0 11 -2 11 -10 -1 -9 -13 -10 -13 -10 0 0 13 -1 13 -10 0 -9 -13 -10 -13
-10 0 0 13 -1 13 -10 0 -7 -11 -10 -11 -10 -2 0 8 -5 10 -12 5 -17 -10 -57
-16 -41 -5 6 4 -19 8 -57 8 -38 0 -64 -4 -57 -8 15 -10 -23 -5 -40 5 -6 4 -14
1 -16 -5 -4 -10 -6 -9 -6 1 -1 11 -4 11 -16 1 -12 -10 -15 -10 -15 1 0 11 -2
11 -10 -1 -9 -13 -10 -13 -10 0 0 13 -1 13 -10 0 -9 -13 -10 -13 -10 0 0 13
-1 13 -10 0 -7 -11 -10 -11 -10 -2 0 8 -5 10 -12 5 -17 -10 -57 -16 -41 -5 6
4 -73 7 -177 7 -103 0 -183 -3 -177 -7 7 -5 3 -7 -10 -5 -12 2 -26 6 -29 10
-4 4 -14 1 -22 -6 -13 -10 -14 -9 -7 3 8 13 7 13 -8 1 -14 -11 -17 -11 -17 0
0 11 -2 11 -10 -1 -8 -12 -10 -12 -10 -1 0 11 -3 11 -17 0 -11 -10 -14 -10 -9
-1 4 6 2 12 -3 12 -6 0 -11 -4 -11 -10 0 -5 -5 -10 -11 -10 -5 0 -8 3 -6 8 3
4 -50 7 -118 7 -68 0 -118 -3 -112 -7 15 -10 -24 -5 -40 5 -6 4 -14 1 -16 -5
-4 -10 -6 -9 -6 1 -1 11 -4 11 -16 1 -12 -10 -15 -10 -15 1 0 11 -2 11 -10 -1
-9 -13 -10 -13 -10 0 0 13 -1 13 -10 0 -9 -13 -10 -13 -10 0 0 13 -1 13 -10 0
-7 -11 -10 -11 -10 -2 0 8 -5 10 -12 5 -17 -10 -57 -16 -41 -5 6 4 -73 7 -177
7 -103 0 -183 -3 -177 -7 7 -5 3 -7 -10 -5 -12 2 -26 6 -29 10 -4 4 -14 1 -22
-6 -13 -10 -14 -9 -7 3 8 13 7 13 -8 1 -14 -11 -17 -11 -17 0 0 11 -2 11 -10
-1 -8 -12 -10 -12 -10 -1 0 11 -3 11 -17 0 -11 -10 -14 -10 -9 -1 4 6 2 12 -3
12 -6 0 -11 -4 -11 -10 0 -5 -5 -10 -11 -10 -5 0 -8 3 -6 8 3 4 -104 7 -238 7
-134 0 -238 -3 -232 -7 7 -5 3 -7 -10 -5 -12 2 -26 6 -29 10 -4 4 -14 1 -22
-6 -13 -10 -14 -9 -7 3 8 13 7 13 -8 1 -14 -11 -17 -11 -17 0 0 11 -2 11 -10
-1 -8 -12 -10 -12 -10 -1 0 11 -3 11 -17 0 -11 -10 -14 -10 -9 -1 4 6 2 12 -3
12 -6 0 -11 -4 -11 -10 0 -5 -5 -10 -11 -10 -5 0 -8 3 -6 8 3 4 -68 7 -158 7
-90 0 -158 -3 -152 -7 7 -5 3 -7 -10 -5 -12 2 -26 6 -29 10 -4 4 -14 1 -22 -6
-13 -10 -14 -9 -7 3 8 13 7 13 -8 1 -14 -11 -17 -11 -17 0 0 11 -2 11 -10 -1
-8 -12 -10 -12 -10 -1 0 11 -3 11 -17 0 -11 -10 -14 -10 -9 -1 4 6 2 12 -3 12
-6 0 -11 -4 -11 -10 0 -5 -5 -10 -11 -10 -5 0 -8 3 -6 8 3 4 -68 7 -158 7 -90
0 -161 -3 -159 -6 5 -9 -17 -6 -33 4 -6 4 -13 3 -15 -2z"/>
<path d="M7700 12782 c0 -7 -39 -13 -90 -15 -8 0 -18 -4 -21 -9 -3 -5 -15 -10
-27 -11 -11 0 -19 -4 -16 -8 2 -4 -14 -10 -36 -14 -26 -4 -41 -13 -45 -26 -4
-10 -13 -19 -20 -19 -19 0 -105 -86 -105 -105 0 -8 -4 -15 -10 -15 -5 0 -10
-7 -10 -16 0 -8 -4 -12 -10 -9 -5 3 -10 0 -11 -7 -1 -29 -8 -51 -18 -61 -6 -6
-11 -26 -11 -45 0 -19 -4 -31 -10 -27 -6 4 -10 -27 -10 -85 0 -70 3 -89 13
-84 9 6 9 4 -1 -8 -8 -10 -9 -17 -3 -20 6 -1 11 -17 13 -35 1 -17 5 -30 9 -27
4 2 10 -14 14 -36 4 -22 10 -38 13 -36 4 2 16 -13 26 -35 11 -21 23 -39 27
-39 11 0 59 -49 59 -60 0 -5 11 -12 25 -16 14 -3 22 -10 19 -15 -3 -5 2 -9 10
-9 9 0 16 -4 16 -10 0 -5 9 -10 19 -10 11 0 21 -4 23 -10 4 -11 36 -18 93 -20
32 -1 36 -3 20 -10 -13 -6 13 -9 77 -8 54 0 95 4 93 8 -4 7 52 19 97 21 10 0
24 9 31 20 8 10 17 16 20 12 4 -3 7 0 7 7 0 7 3 11 6 8 3 -4 14 2 25 13 11 11
25 17 31 13 7 -4 8 -3 4 4 -4 7 -1 12 8 12 15 0 17 5 15 28 0 4 12 12 28 19
15 7 22 12 15 13 -8 0 -5 8 8 22 24 27 50 75 50 95 0 8 4 12 9 9 9 -6 21 70
23 146 1 24 5 35 12 31 8 -5 7 -2 0 8 -9 12 -16 53 -26 157 -1 6 -5 12 -10 12
-4 0 -8 9 -8 21 0 11 -4 17 -10 14 -5 -3 -10 1 -10 9 0 9 -4 16 -10 16 -5 0
-10 9 -10 20 0 11 -5 20 -12 20 -6 0 -9 3 -5 6 8 8 -16 33 -25 27 -5 -2 -8 0
-8 6 0 16 -49 61 -66 61 -8 0 -12 5 -9 10 3 6 -1 10 -9 10 -9 0 -16 4 -16 9 0
10 -48 25 -69 22 -7 -1 -10 2 -6 8 4 7 -4 11 -19 11 -14 0 -26 4 -26 8 0 5
-21 9 -47 11 -27 1 -49 6 -51 12 -2 5 -8 9 -13 9 -6 0 -8 -4 -5 -8 3 -5 -1 -9
-9 -9 -8 0 -12 4 -9 9 3 4 0 8 -5 8 -6 0 -11 -4 -11 -8z"/>
<path d="M9367 12778 c2 -5 -19 -8 -47 -8 -32 0 -49 -4 -45 -10 3 -5 -3 -10
-14 -10 -12 0 -21 -4 -21 -10 0 -5 -11 -10 -24 -10 -14 0 -31 -7 -40 -15 -8
-8 -19 -15 -24 -15 -14 0 -142 -128 -142 -142 0 -8 -8 -25 -17 -38 -10 -14
-17 -26 -15 -27 6 -7 1 -24 -6 -19 -4 2 -9 -7 -10 -22 -1 -15 -7 -28 -12 -30
-15 -5 -13 -212 3 -245 6 -15 15 -27 20 -27 4 0 7 -9 7 -19 0 -11 4 -22 9 -25
5 -3 12 -17 15 -31 6 -24 22 -48 58 -86 9 -9 14 -20 11 -23 -4 -3 0 -6 7 -6 7
0 22 -11 34 -24 11 -14 28 -26 36 -28 8 -2 21 -10 30 -19 15 -15 59 -35 131
-58 54 -17 15955 -16 15962 1 4 10 6 9 6 -1 1 -10 4 -11 14 -3 7 6 30 13 52
15 21 2 41 9 43 16 2 6 12 11 23 11 10 0 19 5 19 10 0 6 7 10 15 10 8 0 15 4
15 10 0 5 11 12 25 16 14 3 25 12 25 20 0 8 4 14 10 14 13 0 60 52 60 66 0 7
7 15 16 18 8 3 13 10 10 15 -4 5 0 16 8 24 8 8 13 17 10 19 -2 3 2 11 11 18 8
7 15 27 15 44 0 24 3 27 10 16 11 -17 14 20 13 170 -1 58 -5 96 -12 98 -6 2
-11 12 -11 22 0 10 -4 22 -10 25 -5 3 -10 17 -10 31 0 13 -5 23 -11 21 -6 -1
-13 5 -14 14 -3 15 -22 42 -53 75 -7 8 -11 14 -7 14 3 0 0 6 -7 14 -7 8 -16
12 -20 9 -5 -2 -8 1 -8 6 0 6 -6 11 -13 11 -7 0 -19 9 -27 20 -8 12 -31 23
-52 27 -21 3 -35 9 -32 14 3 5 -7 9 -21 9 -14 0 -24 4 -21 8 2 4 -12 9 -32 10
-20 2 -43 8 -51 15 -12 9 -13 9 -7 0 8 -14 -6 -18 -18 -6 -10 10 -15876 10
-15869 1z m-410 -580 c-3 -8 -6 -5 -6 6 -1 11 2 17 5 13 3 -3 4 -12 1 -19z"/>
<path d="M4966 10618 c3 -4 -10 -9 -28 -9 -18 -1 -37 -2 -43 -4 -5 -1 -23 -3
-38 -3 -16 -1 -25 -6 -22 -12 3 -6 -4 -10 -16 -10 -12 0 -29 -8 -38 -19 -9
-10 -26 -21 -38 -25 -13 -4 -23 -12 -23 -17 0 -5 -7 -9 -16 -9 -8 0 -13 -3
-11 -7 5 -9 -29 -43 -36 -37 -3 3 -7 -7 -11 -21 -4 -14 -11 -25 -16 -25 -6 0
-10 -8 -10 -17 0 -15 -2 -16 -10 -3 -8 12 -10 9 -10 -13 0 -16 -4 -26 -8 -23
-5 3 -9 0 -10 -7 -6 -43 -16 -83 -23 -88 -5 -3 -10 -24 -11 -47 -1 -22 -4 -39
-7 -37 -4 2 -7 -5 -7 -15 0 -10 3 -17 7 -14 9 5 5 -23 -4 -32 -11 -11 -8 -26
3 -19 6 3 10 0 10 -9 0 -8 -6 -17 -12 -19 -10 -4 -10 -6 0 -6 6 -1 12 -10 12
-21 0 -11 6 -20 13 -20 8 0 7 -4 -3 -10 -9 -6 -10 -10 -3 -10 6 0 15 -20 18
-45 5 -32 13 -46 27 -51 16 -5 18 -8 7 -15 -10 -6 -11 -9 -1 -9 6 0 12 -7 12
-16 0 -8 5 -12 10 -9 6 3 10 0 10 -8 0 -8 7 -17 15 -21 8 -3 15 -10 15 -16 0
-14 30 -42 62 -59 15 -8 25 -17 23 -22 -3 -4 8 -10 25 -14 16 -4 32 -11 35
-16 4 -5 15 -9 25 -9 10 0 20 -5 22 -11 2 -7 46 -12 118 -14 127 -3 193 3 184
16 -4 8 26 14 49 10 5 -1 6 3 2 9 -3 5 3 10 14 10 11 0 26 7 35 15 8 8 18 15
21 15 4 0 26 20 49 43 23 24 51 49 62 55 10 6 13 12 6 12 -13 0 -11 4 26 45 6
7 12 24 12 37 0 18 2 20 9 9 7 -10 12 4 17 47 4 41 10 59 18 55 6 -4 4 2 -4
12 -9 11 -10 16 -2 11 6 -4 12 -3 12 1 0 5 -6 15 -12 22 -10 11 -10 13 0 7 9
-5 12 6 12 46 0 30 -4 58 -9 64 -5 5 -12 29 -15 54 -3 25 -7 51 -8 58 -1 6 -5
12 -10 12 -4 0 -8 9 -8 21 0 11 -4 18 -9 15 -5 -3 -11 8 -15 25 -3 17 -10 28
-16 24 -5 -3 -10 3 -10 14 0 12 -7 21 -15 21 -9 0 -21 11 -27 25 -6 14 -18 25
-25 25 -8 0 -11 5 -7 12 4 6 3 8 -3 5 -5 -4 -19 3 -31 13 -12 11 -28 20 -37
20 -8 0 -15 3 -15 8 0 11 -51 31 -100 37 -25 4 -52 9 -60 12 -24 9 -109 10
-104 1z"/>
<path d="M6650 10620 c0 -5 -3 -9 -7 -8 -19 4 -123 -15 -123 -23 0 -5 -9 -9
-20 -9 -11 0 -20 -4 -20 -10 0 -5 -6 -10 -14 -10 -8 0 -16 -5 -18 -11 -2 -5
-10 -11 -19 -12 -19 -3 -99 -83 -91 -91 3 -3 -3 -6 -14 -6 -15 0 -16 -2 -5 -9
11 -7 9 -10 -7 -15 -13 -4 -22 -19 -26 -41 -4 -19 -12 -35 -18 -35 -6 0 -8 -3
-5 -7 4 -3 0 -17 -9 -31 -26 -40 -27 -291 0 -275 6 4 5 -1 -3 -10 -9 -11 -10
-17 -2 -17 6 0 11 -9 11 -20 0 -11 5 -20 10 -20 6 0 10 -8 10 -19 0 -10 7 -24
15 -31 8 -7 15 -19 15 -26 0 -8 5 -14 10 -14 6 0 10 -7 10 -16 0 -8 4 -12 10
-9 5 3 15 -5 22 -19 6 -14 17 -26 25 -26 7 0 16 -7 19 -15 4 -8 16 -15 28 -15
17 0 18 -2 6 -10 -12 -8 -11 -10 8 -10 12 0 22 -4 22 -9 0 -5 14 -12 30 -16
17 -4 30 -11 30 -16 0 -5 9 -9 20 -9 11 0 20 -6 20 -12 0 -10 3 -9 9 1 7 11 9
11 13 0 4 -12 513 -14 3204 -16 1759 0 3218 1 3241 4 24 3 40 9 37 14 -3 5 6
9 20 9 14 0 26 5 26 10 0 6 5 10 11 10 22 0 85 35 111 62 15 16 32 28 38 28 5
0 10 6 10 14 0 8 7 16 15 20 8 3 15 13 15 23 0 15 2 16 10 3 8 -13 10 -12 10
3 0 9 5 17 11 17 5 0 8 4 4 9 -3 5 -1 12 5 16 5 3 10 15 10 26 0 10 5 19 10
19 6 0 9 3 9 8 -1 4 -1 18 0 32 1 20 3 22 11 10 11 -16 13 15 13 145 0 115 -2
137 -13 130 -6 -4 -10 7 -10 24 0 17 -4 31 -9 31 -5 0 -12 15 -15 34 -4 22
-14 37 -26 41 -11 4 -18 10 -15 15 7 11 -84 104 -105 107 -8 1 -16 7 -18 12
-2 6 -10 11 -18 11 -9 0 -12 5 -9 10 5 9 -8 12 -31 9 -4 0 -10 4 -13 10 -7 11
-53 21 -107 23 -18 1 -32 4 -30 7 2 3 -16 6 -40 7 -26 0 -39 -3 -32 -7 8 -5 5
-8 -9 -6 -12 0 -19 5 -17 9 6 10 -10 11 -20 1 -9 -9 -37 -13 -32 -5 2 4 -1380
6 -3072 6 -1693 -1 -3077 -2 -3077 -4 0 -1 -8 -3 -18 -5 -9 -2 -15 1 -11 6 3
5 0 9 -5 9 -6 0 -11 -4 -11 -10z"/>
<path d="M14788 10621 c-2 -7 -83 -19 -136 -21 -7 0 -10 -4 -7 -10 5 -9 -16
-15 -38 -11 -5 1 -6 -3 -3 -8 3 -5 -10 -16 -29 -25 -19 -9 -35 -21 -35 -27 0
-6 -4 -8 -9 -4 -5 3 -17 -5 -25 -17 -9 -12 -16 -18 -16 -13 0 6 -9 -5 -21 -24
-11 -19 -27 -40 -35 -48 -8 -8 -14 -23 -14 -32 0 -10 -7 -24 -15 -31 -8 -7
-12 -16 -9 -21 3 -5 2 -9 -3 -9 -31 0 -54 -253 -25 -282 7 -7 12 -22 12 -35 0
-13 5 -23 11 -23 5 0 8 -4 4 -9 -3 -5 2 -16 10 -24 8 -9 15 -20 15 -26 0 -5 7
-17 16 -25 8 -9 11 -16 5 -16 -5 0 6 -15 24 -34 19 -18 35 -38 35 -45 0 -7 4
-10 9 -7 12 8 52 -29 43 -39 -4 -5 -2 -5 5 -2 6 4 19 -1 29 -10 16 -16 32 -23
61 -25 7 -1 10 -5 7 -10 -5 -8 10 -12 35 -9 7 2 10 -2 7 -7 -3 -6 11 -12 32
-15 20 -3 3009 -5 6642 -5 3633 0 6622 2 6642 5 21 3 35 9 32 14 -3 5 1 6 9 3
8 -3 21 2 29 10 9 8 27 17 41 18 14 2 35 14 46 27 11 12 23 23 28 24 4 1 7 5
6 10 -2 4 2 7 7 7 13 0 50 37 50 51 0 5 5 7 10 4 6 -3 10 1 10 10 0 9 5 13 10
10 6 -3 10 1 10 9 0 9 4 16 9 16 5 0 12 14 16 30 4 19 11 28 18 23 7 -3 9 -3
5 2 -4 4 -2 17 4 29 20 36 27 80 28 171 1 88 -8 149 -20 153 -6 2 -10 14 -10
27 0 13 -5 25 -11 27 -9 3 -16 24 -18 56 -1 7 -5 10 -11 7 -5 -3 -10 -1 -10 5
0 17 -106 120 -124 120 -9 0 -16 5 -16 10 0 6 -7 10 -15 10 -8 0 -15 5 -15 10
0 6 -9 10 -20 10 -11 0 -20 4 -20 10 0 9 -93 26 -119 21 -7 -1 -11 1 -8 6 3 4
-2950 7 -6561 7 -3612 -1 -6567 -2 -6567 -4 0 -1 -8 -3 -18 -5 -9 -2 -15 1
-11 6 3 5 1 9 -5 9 -5 0 -11 -4 -13 -9z"/>
<path d="M15705 8471 c-2 -4 -19 -8 -39 -9 -19 -1 -47 -9 -62 -17 -15 -8 -32
-11 -37 -8 -6 3 -7 1 -4 -5 5 -6 -9 -13 -34 -17 -29 -5 -38 -10 -28 -16 11 -7
11 -9 -2 -9 -9 0 -28 -11 -42 -24 -14 -13 -28 -22 -31 -19 -2 3 -9 -4 -15 -15
-6 -11 -7 -23 -3 -27 4 -3 2 -6 -3 -5 -23 5 -33 -1 -39 -25 -4 -14 -11 -25
-16 -25 -6 0 -10 -7 -10 -15 0 -8 -4 -15 -10 -15 -5 0 -10 -9 -10 -21 0 -11
-4 -17 -10 -14 -5 3 -10 0 -10 -7 -2 -41 -14 -94 -24 -100 -8 -5 -7 -8 3 -8 9
0 10 -4 3 -12 -12 -16 -15 -127 -3 -142 4 -6 11 -32 14 -59 4 -26 13 -58 22
-70 8 -13 12 -27 8 -32 -5 -4 -2 -5 5 -1 7 4 12 1 12 -8 0 -9 4 -16 10 -16 5
0 12 -11 16 -25 3 -13 15 -27 25 -30 10 -4 19 -10 19 -15 0 -15 51 -61 61 -55
5 4 12 -1 15 -9 3 -9 16 -16 28 -16 17 0 18 -2 6 -10 -12 -8 -10 -10 8 -10 13
0 20 -4 17 -10 -4 -6 -3 -10 2 -8 14 3 97 -14 117 -24 14 -8 17 -7 11 3 -6 8
-4 10 6 3 17 -10 160 -14 154 -4 -3 4 19 10 48 13 28 4 53 11 55 17 2 5 10 10
18 10 8 0 14 5 14 10 0 6 9 10 19 10 10 0 21 7 25 15 3 8 15 15 26 15 12 0 19
4 16 8 -3 5 4 15 15 22 10 8 19 20 19 27 0 7 3 12 8 12 22 -4 32 3 32 21 0 11
7 23 15 26 8 4 13 10 10 14 -3 4 2 13 10 20 8 7 13 16 10 20 -3 5 -1 11 5 15
5 3 10 17 10 30 0 13 5 27 10 30 6 3 10 19 10 35 0 16 5 32 10 35 6 3 10 13
10 21 0 8 -5 12 -10 9 -13 -8 -8 17 5 28 6 6 6 10 -2 14 -7 2 -13 9 -13 14 0
6 4 8 8 5 10 -6 9 30 -1 40 -4 4 -7 22 -7 41 0 18 -4 33 -9 33 -7 0 -17 33
-23 77 -1 7 -5 10 -10 7 -4 -3 -8 2 -8 11 0 9 -4 14 -9 11 -5 -3 -12 10 -15
29 -4 20 -11 33 -17 30 -5 -4 -9 -1 -9 5 0 6 -4 8 -10 5 -5 -3 -10 1 -10 10 0
8 -11 20 -25 27 -13 6 -22 15 -19 19 3 5 -2 9 -10 9 -9 0 -16 5 -16 10 0 6 -8
10 -17 10 -15 0 -16 2 -3 10 12 8 10 10 -10 11 -14 1 -28 1 -32 1 -3 -1 -12 5
-18 13 -7 8 -25 15 -41 15 -16 0 -29 4 -29 9 0 14 -156 35 -165 22z"/>
<path d="M17374 8470 c-3 -2 -17 -6 -32 -8 -15 -2 -30 -8 -33 -14 -4 -7 -9 -5
-12 3 -4 10 -6 10 -6 2 -1 -7 -13 -13 -27 -13 -14 0 -23 -4 -19 -10 5 -9 -15
-15 -38 -11 -4 1 -10 -6 -13 -14 -3 -8 -10 -13 -14 -10 -5 3 -27 -12 -49 -34
-22 -21 -42 -36 -45 -33 -3 3 -6 0 -6 -7 0 -19 -36 -61 -45 -53 -5 4 -5 2 -2
-5 4 -6 1 -18 -8 -26 -8 -8 -17 -30 -20 -48 -3 -19 -9 -36 -13 -39 -4 -3 -9
-14 -10 -25 -2 -11 -8 -25 -13 -31 -5 -6 -4 -16 4 -24 9 -10 9 -11 0 -6 -10 5
-13 -10 -13 -64 0 -45 4 -69 10 -65 7 4 7 -3 0 -20 -7 -17 -7 -24 0 -20 6 4
10 -7 10 -24 0 -17 4 -31 9 -31 5 0 12 -16 15 -35 4 -19 11 -35 17 -35 6 0 8
-4 5 -9 -3 -4 3 -19 14 -31 11 -13 20 -19 21 -14 1 5 4 -1 7 -14 4 -13 10 -23
15 -23 10 1 45 -33 41 -40 -2 -3 13 -15 34 -25 20 -10 39 -22 40 -26 2 -5 12
-8 23 -8 10 0 19 -4 19 -10 0 -5 7 -10 15 -10 8 0 15 -4 15 -9 0 -5 19 -11 42
-15 23 -4 48 -12 55 -18 9 -7 18 -7 30 3 9 8 14 10 11 4 -4 -6 40 -10 123 -11
89 0 126 3 122 10 -3 6 0 5 8 -1 7 -7 24 -13 37 -13 16 0 21 4 16 13 -6 10 -4
10 7 0 7 -7 19 -13 27 -13 8 0 10 5 6 13 -6 10 -4 10 7 0 7 -7 37 -13 67 -13
40 0 51 3 46 13 -6 10 -4 10 7 0 7 -7 19 -13 27 -13 8 0 10 5 6 13 -6 10 -4
10 7 0 7 -7 24 -13 37 -13 16 0 21 4 16 13 -6 10 -4 10 7 0 7 -7 24 -13 37
-13 16 0 21 4 16 13 -6 10 -4 10 7 0 7 -7 19 -13 27 -13 8 0 10 5 6 13 -6 10
-4 10 7 0 7 -7 37 -13 67 -13 40 0 51 3 46 13 -6 10 -4 10 7 0 17 -16 43 -17
33 -1 -5 7 -3 8 7 2 22 -13 180 -14 172 0 -3 6 0 5 8 -1 7 -7 24 -13 37 -13
16 0 21 4 16 13 -6 10 -4 10 7 0 7 -7 24 -13 37 -13 16 0 21 4 16 13 -6 10 -4
10 7 0 7 -7 24 -13 37 -13 16 0 21 4 16 13 -6 10 -4 10 7 0 17 -17 123 -18
113 -1 -5 7 -3 8 7 3 22 -14 220 -15 212 -1 -3 6 0 6 8 -1 7 -7 24 -13 37 -13
16 0 21 4 16 13 -6 10 -4 10 7 0 7 -7 19 -13 27 -13 8 0 10 5 6 13 -6 10 -4
10 7 0 7 -7 37 -13 67 -13 40 0 51 3 46 13 -6 10 -4 10 7 0 7 -7 19 -13 27
-13 8 0 10 5 6 13 -6 10 -4 10 7 0 7 -7 24 -13 37 -13 16 0 21 4 16 13 -6 10
-4 10 7 0 7 -7 24 -13 37 -13 16 0 21 4 16 13 -6 10 -4 10 7 0 7 -7 19 -13 27
-13 8 0 10 5 6 13 -6 10 -4 10 7 0 7 -7 37 -13 67 -13 40 0 51 3 46 13 -6 10
-4 10 7 0 17 -16 43 -17 33 -1 -5 7 -3 8 7 2 22 -13 180 -14 172 0 -3 6 0 5 8
-1 7 -7 24 -13 37 -13 16 0 21 4 16 13 -6 10 -4 10 7 0 7 -7 24 -13 37 -13 16
0 21 4 16 13 -6 10 -4 10 7 0 7 -7 24 -13 37 -13 16 0 21 4 16 13 -6 10 -4 10
7 0 17 -17 123 -18 113 -1 -5 7 -3 8 7 3 22 -14 220 -15 212 -1 -3 6 0 6 8 -1
7 -7 24 -13 37 -13 16 0 21 4 16 13 -6 10 -4 10 7 0 7 -7 19 -13 27 -13 8 0
10 5 6 13 -6 10 -4 10 7 0 7 -7 37 -13 67 -13 40 0 51 3 46 13 -6 10 -4 10 7
0 7 -7 19 -13 27 -13 8 0 10 5 6 13 -6 10 -4 10 7 0 7 -7 24 -13 37 -13 16 0
21 4 16 13 -6 10 -4 10 7 0 7 -7 24 -13 37 -13 16 0 21 4 16 13 -6 10 -4 10 7
0 7 -7 19 -13 27 -13 8 0 10 5 6 13 -6 10 -4 10 7 0 7 -7 37 -13 67 -13 40 0
51 3 46 13 -6 10 -4 10 7 0 17 -16 43 -17 33 -1 -5 7 -3 8 7 2 22 -13 180 -14
172 0 -3 6 0 5 8 -1 7 -7 24 -13 37 -13 16 0 21 4 16 13 -6 10 -4 10 7 0 7 -7
24 -13 37 -13 16 0 21 4 16 13 -6 10 -4 10 7 0 7 -7 24 -13 37 -13 16 0 21 4
16 13 -6 10 -4 10 7 0 17 -17 123 -18 113 -1 -5 7 -3 8 7 3 22 -14 220 -15
212 -1 -3 6 0 6 8 -1 7 -7 24 -13 37 -13 16 0 21 4 16 13 -6 10 -4 10 7 0 7
-7 19 -13 27 -13 8 0 10 5 6 13 -6 10 -4 10 7 0 7 -7 37 -13 67 -13 40 0 51 3
46 13 -6 10 -4 10 7 0 7 -7 19 -13 27 -13 8 0 10 5 6 13 -6 10 -4 10 7 0 7 -7
24 -13 37 -13 16 0 21 4 16 13 -6 10 -4 10 7 0 7 -7 24 -13 37 -13 16 0 21 4
16 13 -6 10 -4 10 7 0 7 -7 19 -13 27 -13 8 0 10 5 6 13 -6 10 -4 10 7 0 7 -7
37 -13 67 -13 40 0 51 3 46 13 -6 10 -4 10 7 0 17 -16 43 -17 33 -1 -5 7 -3 8
7 2 22 -13 180 -14 172 0 -3 6 0 5 8 -1 7 -7 24 -13 37 -13 16 0 21 4 16 13
-6 10 -4 10 7 0 7 -7 24 -13 37 -13 16 0 21 4 16 13 -6 10 -4 10 7 0 7 -7 24
-13 37 -13 16 0 21 4 16 13 -6 10 -4 10 7 0 17 -17 123 -18 113 -1 -5 7 -3 8
7 3 22 -14 220 -15 212 -1 -3 6 0 6 8 -1 7 -7 24 -13 37 -13 16 0 21 4 16 13
-6 10 -4 10 7 0 7 -7 19 -13 27 -13 8 0 10 5 6 13 -6 10 -4 10 7 0 7 -7 37
-13 67 -13 40 0 51 3 46 13 -6 10 -4 10 7 0 7 -7 19 -13 27 -13 8 0 10 5 6 13
-6 10 -4 10 7 0 7 -7 24 -13 37 -13 16 0 21 4 16 13 -6 10 -4 10 7 0 7 -7 24
-13 37 -13 16 0 21 4 16 13 -6 10 -4 10 7 0 7 -7 19 -13 27 -13 8 0 10 5 6 13
-6 10 -4 10 7 0 7 -7 37 -13 67 -13 40 0 51 3 46 13 -6 10 -4 10 7 0 17 -16
43 -17 33 -1 -5 7 -3 8 7 2 22 -13 180 -14 172 0 -3 6 0 5 8 -1 7 -7 24 -13
37 -13 16 0 21 4 16 13 -6 9 -4 9 7 0 18 -17 63 -17 53 0 -6 10 -4 10 7 0 7
-7 24 -13 37 -13 16 0 21 4 16 13 -6 10 -4 10 7 0 17 -17 123 -18 113 -1 -5 7
-3 8 7 3 22 -14 220 -15 212 -1 -3 6 0 6 8 -1 18 -17 63 -17 53 0 -6 10 -4 10
7 0 7 -7 19 -13 27 -13 8 0 10 5 6 13 -6 10 -4 10 7 0 18 -18 123 -18 113 0
-6 10 -4 10 7 0 7 -7 19 -13 27 -13 8 0 10 5 6 13 -6 10 -4 10 7 0 7 -7 24
-13 37 -13 16 0 21 4 16 13 -6 9 -4 9 7 0 18 -17 63 -17 53 0 -6 10 -4 10 7 0
7 -7 19 -13 27 -13 8 0 10 5 6 13 -6 10 -4 10 7 0 7 -7 37 -13 67 -13 40 0 51
3 46 13 -6 10 -4 10 7 0 17 -16 43 -17 33 -1 -5 7 -3 8 7 2 22 -13 180 -14
172 0 -3 6 0 5 8 -1 7 -7 24 -13 37 -13 16 0 21 4 16 13 -6 10 -4 10 7 0 7 -7
24 -13 37 -13 16 0 21 4 16 13 -6 10 -4 10 7 0 7 -7 24 -13 37 -13 16 0 21 4
16 13 -6 10 -4 10 7 0 17 -17 123 -18 113 -1 -5 7 -3 8 7 3 22 -14 220 -15
212 -1 -3 6 0 6 8 -1 18 -17 63 -17 53 0 -6 10 -4 10 7 0 17 -17 42 -17 33 0
-6 10 -4 10 7 0 15 -15 105 -18 113 -4 4 5 28 12 56 16 27 4 54 13 61 21 6 7
15 11 20 8 5 -3 9 0 9 5 0 6 6 11 14 11 8 0 16 5 18 11 2 5 11 11 20 13 19 2
138 120 138 137 0 5 5 7 10 4 6 -3 11 1 11 9 1 9 3 21 4 26 1 6 3 15 4 21 0 5
6 7 11 4 6 -4 10 -3 9 2 -4 21 2 54 9 50 11 -8 17 102 13 233 -1 32 -4 41 -11
30 -6 -10 -9 -5 -8 20 1 19 -4 36 -10 38 -7 2 -12 12 -12 22 0 10 -5 22 -10
25 -6 4 -8 10 -6 14 3 4 -4 14 -15 21 -10 8 -19 20 -19 28 0 7 -4 11 -9 8 -5
-3 -12 5 -15 19 -4 15 -16 27 -31 31 -14 3 -22 10 -19 15 3 5 -3 9 -13 9 -15
0 -16 2 -3 10 12 8 11 10 -7 10 -13 0 -23 4 -23 10 0 5 -16 12 -35 16 -19 3
-32 10 -29 15 3 5 -9 9 -26 9 -18 0 -29 4 -25 10 4 6 -8 10 -28 10 -18 0 -37
3 -41 7 -8 8 -8184 11 -8192 3z"/>
<path d="M10770 6311 c0 -4 -27 -11 -60 -14 -33 -4 -71 -14 -83 -22 -13 -8
-27 -12 -32 -8 -4 5 -5 2 -1 -4 4 -8 1 -13 -8 -13 -8 0 -16 -5 -18 -11 -2 -5
-10 -11 -19 -12 -18 -3 -119 -101 -119 -117 0 -5 -4 -10 -10 -10 -5 0 -13 -12
-16 -27 -4 -16 -16 -41 -28 -58 -19 -27 -21 -44 -21 -177 0 -104 4 -151 13
-160 6 -6 12 -23 12 -36 0 -13 4 -20 10 -17 6 3 10 1 10 -5 0 -24 33 -79 50
-85 10 -3 21 -17 24 -31 4 -14 10 -22 15 -20 11 7 53 -29 44 -38 -6 -5 13 -9
20 -3 2 1 11 -6 21 -15 10 -10 24 -18 32 -18 8 0 14 -5 14 -11 0 -5 4 -8 9 -4
5 3 12 1 16 -5 4 -6 11 -8 16 -5 5 4 9 1 9 -4 0 -6 13 -11 29 -11 17 0 32 -4
35 -8 3 -5 28 -10 56 -11 35 -1 49 2 45 10 -4 6 2 5 14 -3 17 -10 25 -10 41 0
11 6 28 12 38 12 10 0 24 6 31 13 9 7 12 8 7 0 -4 -8 0 -8 19 0 14 7 25 15 25
20 0 4 8 7 19 7 10 0 24 7 31 15 7 8 17 15 22 15 5 0 20 11 34 25 14 14 30 25
36 25 6 0 9 3 5 6 -3 3 5 16 19 29 13 12 24 28 24 34 0 7 5 9 10 6 6 -3 10 3
10 13 0 11 7 23 16 26 8 3 13 10 10 14 -3 5 2 21 10 36 7 16 14 36 14 45 0 9
5 22 11 28 15 15 13 204 -3 215 -10 6 -9 8 2 8 9 0 11 3 5 8 -15 11 -32 44
-40 81 -4 18 -14 42 -24 53 -9 11 -24 29 -33 40 -10 12 -18 25 -18 29 0 4 -9
11 -21 14 -11 4 -18 9 -15 12 8 8 -22 34 -45 38 -12 2 -27 12 -35 22 -7 10
-14 14 -14 10 0 -5 -7 -1 -15 7 -19 18 -88 39 -128 38 -15 0 -25 3 -23 7 3 3
-11 7 -29 7 -18 0 -32 -3 -30 -6 2 -3 -5 -6 -15 -6 -10 0 -16 4 -14 8 3 4 0 8
-5 8 -6 0 -11 -4 -11 -9z"/>
<path d="M12443 6314 c4 -8 -16 -14 -63 -18 -39 -4 -70 -11 -70 -16 0 -5 -16
-14 -34 -21 -19 -7 -33 -16 -30 -21 3 -4 -8 -11 -25 -14 -17 -4 -28 -10 -25
-15 3 -5 0 -9 -6 -9 -6 0 -9 -4 -6 -9 6 -9 -22 -26 -37 -22 -5 1 -6 -3 -2 -9
3 -5 1 -10 -5 -10 -6 0 -8 -4 -5 -10 3 -5 2 -10 -4 -10 -5 0 -13 -10 -17 -22
-4 -13 -16 -31 -27 -40 -14 -13 -16 -18 -6 -18 11 0 12 -2 1 -9 -8 -4 -16 -27
-19 -49 -3 -23 -9 -40 -12 -37 -4 2 -8 -13 -9 -33 -2 -20 -8 -43 -15 -51 -9
-12 -9 -13 1 -7 9 5 12 -9 13 -61 1 -37 1 -71 0 -75 0 -5 3 -8 8 -8 5 0 12
-22 16 -49 4 -34 14 -55 31 -70 13 -11 24 -30 24 -41 0 -11 4 -20 10 -20 5 0
23 -13 38 -30 16 -16 33 -30 38 -30 5 0 22 -13 37 -30 16 -16 36 -30 44 -30 9
0 39 -11 67 -24 83 -38 108 -47 101 -36 -3 5 -1 10 4 10 6 0 11 -3 11 -7 0 -5
34 -9 75 -10 55 -1 73 2 68 10 -5 9 -3 9 8 0 19 -15 200 -13 192 2 -3 5 0 4 8
-2 7 -7 28 -13 47 -13 24 0 31 4 26 13 -6 10 -4 10 7 0 17 -17 63 -17 53 -1
-5 7 -3 8 7 3 7 -5 42 -10 77 -12 47 -2 61 1 56 10 -5 9 -3 9 7 0 7 -7 24 -13
37 -13 16 0 21 4 16 13 -6 10 -4 10 7 0 17 -16 43 -17 33 -1 -5 7 -3 8 7 3 23
-15 100 -16 93 -2 -5 8 -3 8 7 0 7 -7 28 -13 47 -13 24 0 31 4 26 13 -6 10 -4
10 7 0 7 -7 24 -13 37 -13 16 0 21 4 16 13 -6 10 -4 10 7 0 7 -7 24 -13 37
-13 16 0 21 4 16 13 -6 10 -4 10 7 0 7 -7 24 -13 37 -13 16 0 21 4 16 13 -6
10 -4 10 7 0 7 -7 19 -13 27 -13 8 0 10 5 6 13 -6 10 -4 10 7 0 7 -7 24 -13
37 -13 16 0 21 4 16 13 -6 10 -4 10 7 0 7 -7 24 -13 37 -13 16 0 21 4 16 13
-6 10 -4 10 7 0 7 -7 24 -13 37 -13 16 0 21 4 16 13 -6 10 -4 10 7 0 7 -7 28
-13 47 -13 24 0 31 4 26 13 -6 10 -4 10 7 0 17 -17 63 -17 53 -1 -5 7 -3 8 7
3 7 -5 42 -10 77 -12 47 -2 61 1 56 10 -5 9 -3 9 7 0 7 -7 24 -13 37 -13 16 0
21 4 16 13 -6 10 -4 10 7 0 17 -16 43 -17 33 -1 -5 7 -3 8 7 3 23 -15 100 -16
93 -2 -5 8 -3 8 7 0 7 -7 28 -13 47 -13 24 0 31 4 26 13 -6 10 -4 10 7 0 7 -7
24 -13 37 -13 16 0 21 4 16 13 -6 10 -4 10 7 0 7 -7 24 -13 37 -13 16 0 21 4
16 13 -6 10 -4 10 7 0 7 -7 24 -13 37 -13 16 0 21 4 16 13 -6 10 -4 10 7 0 7
-7 19 -13 27 -13 8 0 10 5 6 13 -6 10 -4 10 7 0 7 -7 24 -13 37 -13 16 0 21 4
16 13 -6 10 -4 10 7 0 7 -7 24 -13 37 -13 16 0 21 4 16 13 -6 10 -4 10 7 0 7
-7 24 -13 37 -13 16 0 21 4 16 13 -6 10 -4 10 7 0 7 -7 28 -13 47 -13 24 0 31
4 26 13 -6 10 -4 10 7 0 17 -17 63 -17 53 -1 -5 7 -3 8 7 3 7 -5 42 -10 77
-12 47 -2 61 1 56 10 -5 9 -3 9 7 0 7 -7 24 -13 37 -13 16 0 21 4 16 13 -6 10
-4 10 7 0 17 -16 43 -17 33 -1 -5 7 -3 8 7 3 23 -15 100 -16 93 -2 -5 8 -3 8
7 0 7 -7 28 -13 47 -13 24 0 31 4 26 13 -6 10 -4 10 7 0 7 -7 24 -13 37 -13
16 0 21 4 16 13 -6 10 -4 10 7 0 7 -7 24 -13 37 -13 16 0 21 4 16 13 -6 10 -4
10 7 0 7 -7 24 -13 37 -13 16 0 21 4 16 13 -6 10 -4 10 7 0 7 -7 19 -13 27
-13 8 0 10 5 6 13 -6 10 -4 10 7 0 7 -7 24 -13 37 -13 16 0 21 4 16 13 -6 10
-4 10 7 0 7 -7 24 -13 37 -13 16 0 21 4 16 13 -6 10 -4 10 7 0 7 -7 24 -13 37
-13 16 0 21 4 16 13 -6 10 -4 10 7 0 7 -7 28 -13 47 -13 24 0 31 4 26 13 -6
10 -4 10 7 0 17 -17 63 -17 53 -1 -5 7 -3 8 7 3 7 -5 42 -10 77 -12 47 -2 61
1 56 10 -5 9 -3 9 7 0 7 -7 24 -13 37 -13 16 0 21 4 16 13 -6 10 -4 10 7 0 17
-16 43 -17 33 -1 -5 7 -3 8 7 3 23 -15 100 -16 93 -2 -5 8 -3 8 7 0 7 -7 28
-13 47 -13 24 0 31 4 26 13 -6 10 -4 10 7 0 7 -7 24 -13 37 -13 16 0 21 4 16
13 -6 10 -4 10 7 0 7 -7 24 -13 37 -13 16 0 21 4 16 13 -6 10 -4 10 7 0 7 -7
24 -13 37 -13 16 0 21 4 16 13 -6 10 -4 10 7 0 7 -7 19 -13 27 -13 8 0 10 5 6
13 -6 10 -4 10 7 0 7 -7 24 -13 37 -13 16 0 21 4 16 13 -6 10 -4 10 7 0 7 -7
24 -13 37 -13 16 0 21 4 16 13 -6 10 -4 10 7 0 7 -7 19 -13 27 -13 8 0 10 5 6
13 -6 10 -4 10 7 0 7 -7 24 -13 37 -13 16 0 21 4 16 13 -6 10 -4 10 7 0 7 -7
24 -13 37 -13 16 0 21 4 16 13 -6 10 -4 10 7 0 7 -7 19 -13 27 -13 8 0 10 5 6
13 -6 10 -4 10 7 0 7 -7 24 -13 37 -13 16 0 21 4 16 13 -6 10 -4 10 7 0 7 -7
24 -13 37 -13 16 0 21 4 16 13 -6 10 -4 10 7 0 7 -7 24 -13 37 -13 16 0 21 4
16 13 -6 10 -4 10 7 0 7 -7 28 -13 47 -13 24 0 31 4 26 13 -6 10 -4 10 7 0 17
-17 63 -17 53 -1 -5 7 -3 8 7 3 7 -5 42 -10 77 -12 47 -2 61 1 56 10 -5 9 -3
9 7 0 7 -7 24 -13 37 -13 16 0 21 4 16 13 -6 10 -4 10 7 0 17 -16 43 -17 33
-1 -5 7 -3 8 7 3 23 -15 100 -16 93 -2 -5 8 -3 8 7 0 7 -7 28 -13 47 -13 24 0
31 4 26 13 -6 10 -4 10 7 0 7 -7 24 -13 37 -13 16 0 21 4 16 13 -6 10 -4 10 7
0 7 -7 24 -13 37 -13 16 0 21 4 16 13 -6 10 -4 10 7 0 7 -7 24 -13 37 -13 16
0 21 4 16 13 -6 10 -4 10 7 0 7 -7 19 -13 27 -13 8 0 10 5 6 13 -6 10 -4 10 7
0 7 -7 24 -13 37 -13 16 0 21 4 16 13 -6 10 -4 10 7 0 7 -7 24 -13 37 -13 16
0 21 4 16 13 -6 10 -4 10 7 0 7 -7 19 -13 27 -13 8 0 10 5 6 13 -6 10 -4 10 7
0 7 -7 24 -13 37 -13 16 0 21 4 16 13 -6 10 -4 10 7 0 7 -7 24 -13 37 -13 16
0 21 4 16 13 -6 10 -4 10 7 0 7 -7 19 -13 27 -13 8 0 10 5 6 13 -6 10 -4 10 7
0 7 -7 24 -13 37 -13 16 0 21 4 16 13 -6 10 -4 10 7 0 7 -7 24 -13 37 -13 16
0 21 4 16 13 -6 10 -4 10 7 0 7 -7 24 -13 37 -13 16 0 21 4 16 13 -6 10 -4 10
7 0 7 -7 28 -13 47 -13 24 0 31 4 26 13 -6 10 -4 10 7 0 17 -17 63 -17 53 -1
-5 7 -3 8 7 3 7 -5 42 -10 77 -12 47 -2 61 1 56 10 -5 9 -3 9 7 0 7 -7 24 -13
37 -13 16 0 21 4 16 13 -6 10 -4 10 7 0 17 -16 43 -17 33 -1 -5 7 -3 8 7 3 23
-15 100 -16 93 -2 -5 8 -3 8 7 0 7 -7 28 -13 47 -13 24 0 31 4 26 13 -6 10 -4
10 7 0 7 -7 24 -13 37 -13 16 0 21 4 16 13 -6 10 -4 10 7 0 7 -7 24 -13 37
-13 16 0 21 4 16 13 -6 10 -4 10 7 0 7 -7 24 -13 37 -13 16 0 21 4 16 13 -6
10 -4 10 7 0 7 -7 19 -13 27 -13 8 0 10 5 6 13 -6 10 -4 10 7 0 7 -7 24 -13
37 -13 16 0 21 4 16 13 -6 10 -4 10 7 0 7 -7 24 -13 37 -13 16 0 21 4 16 13
-6 10 -4 10 7 0 7 -7 19 -13 27 -13 8 0 10 5 6 13 -6 10 -4 10 7 0 7 -7 24
-13 37 -13 16 0 21 4 16 13 -6 10 -4 10 7 0 18 -17 63 -17 53 0 -6 10 -4 10 7
0 7 -7 19 -13 27 -13 8 0 10 5 6 13 -6 10 -4 10 7 0 7 -7 24 -13 37 -13 16 0
21 4 16 13 -6 10 -4 10 7 0 18 -17 63 -17 53 0 -6 10 -4 10 7 0 7 -7 24 -13
37 -13 16 0 21 4 16 13 -6 10 -4 10 7 0 7 -7 28 -13 47 -13 24 0 31 4 26 13
-6 10 -4 10 7 0 17 -17 63 -17 53 -1 -5 7 -3 8 7 3 7 -5 42 -10 77 -12 47 -2
61 1 56 10 -5 9 -3 9 7 0 7 -7 24 -13 37 -13 16 0 21 4 16 13 -6 10 -4 10 7 0
17 -16 43 -17 33 -1 -5 7 -3 8 7 3 23 -15 100 -16 93 -2 -5 8 -3 8 7 0 7 -7
28 -13 47 -13 24 0 31 4 26 13 -6 9 -4 9 7 0 18 -17 63 -17 53 0 -6 10 -4 10
7 0 18 -17 63 -17 53 0 -6 10 -4 10 7 0 7 -7 24 -13 37 -13 16 0 21 4 16 13
-6 9 -4 9 7 0 17 -17 42 -17 33 0 -6 10 -4 10 7 0 7 -7 24 -13 37 -13 16 0 21
4 16 13 -6 10 -4 10 7 0 7 -7 24 -13 37 -13 16 0 21 4 16 13 -6 10 -4 10 7 0
17 -17 42 -17 33 0 -6 10 -4 10 7 0 7 -7 24 -13 37 -13 16 0 21 4 16 13 -6 10
-4 10 7 0 14 -14 73 -18 66 -5 -5 6 21 11 75 15 9 1 14 5 12 9 -3 4 4 8 16 8
12 0 19 4 16 8 -3 5 1 9 9 9 27 0 95 38 101 57 4 13 8 15 14 6 5 -8 9 -8 13 4
4 9 13 16 22 16 8 0 15 4 15 8 0 15 37 52 44 45 3 -3 6 3 6 15 0 11 8 28 18
38 9 10 17 21 17 25 0 4 3 11 8 15 4 4 7 16 7 26 0 11 4 17 9 14 14 -9 21 66
18 200 -2 89 -7 129 -15 132 -7 2 -10 7 -7 12 3 4 -2 13 -10 20 -8 7 -15 19
-15 26 0 8 -4 14 -9 14 -5 0 -12 11 -15 25 -4 14 -12 25 -19 25 -8 0 -7 4 3
10 12 8 11 10 -6 10 -15 0 -24 8 -28 25 -4 14 -14 25 -23 25 -8 0 -26 11 -38
24 -13 14 -26 22 -29 19 -3 -4 -6 -1 -6 6 0 7 -4 9 -10 6 -5 -3 -10 -3 -10 2
0 16 -56 35 -117 40 -34 3 -61 8 -59 12 2 3 -1820 6 -4049 6 -2229 0 -4051 -3
-4049 -7 5 -8 -17 -5 -33 5 -8 5 -13 3 -13 -4 0 -8 -5 -7 -17 2 -9 8 -14 9
-10 3z"/>
</g>
</svg>
