<?xml version="1.0" standalone="yes"?>
<svg xmlns="http://www.w3.org/2000/svg" width="931" height="794">
<path style="fill:#010101; stroke:none;" d="M0 0L0 449L1 449C9.86418 431.915 38.35 435.364 35.6844 457C33.407 475.486 7.03218 478.742 1 461L0 461L0 794L265 794L265 793C247.429 786.188 250.445 759.453 270 758.214C291.05 756.881 294.033 784.873 277 793L277 794L329 794L329 793C311.825 785.445 312.887 760.698 333 758.185C360.439 754.757 390.33 758 418 758L590 758L626 758C632.149 758 639.385 757.081 645 760.14C659.309 767.934 657.116 787.861 642 793L642 794L931 794L931 622L930 622C923.565 634.397 912.224 634 900 634L828 634L515 634C484.329 634 452.558 636.414 422 633.907C411.98 633.085 402.862 624.456 403.789 614C405.084 599.395 418.484 598 430 598L515 598L830 598L903 598C914.137 598 925.681 597.297 930 610L931 610L931 0L578 0L578 1C601.136 1.00262 625.184 7.39325 647 14.6667C720.951 39.3215 782.197 94.3969 816.752 164C832.52 195.76 844.4 234.297 844.997 270C845.213 282.935 850.181 304.263 831 305.906C785.401 309.811 737.785 306 692 306L414 306L309 306C297.887 306 278.235 309.779 269.019 302.581C260.197 295.691 262.107 279.027 263.424 269C267.17 240.483 271.607 212.987 282.203 186C312.728 108.253 375.637 46.2968 454 17.3187C477.679 8.56226 504.57 1.01685 530 1C518.068 -4.00677 496.991 0 484 0L375 0L0 0z"/>
<path style="fill:#53cbc9; stroke:none;" d="M530 0.424377C495.522 4.95349 462.864 11.6798 431 26.3087C362.494 57.7603 305.176 118.483 280.344 190C271.036 216.807 263.714 245.477 263.015 274C262.788 283.251 260.356 297.196 269.043 303.297C278.288 309.79 298.13 306 309 306L413 306L698 306L789 306C803.299 306 819.962 308.372 834 305.66C851.235 302.329 846.207 275.389 844.576 263C839.004 220.691 827.946 181.259 806.573 144C753.2 50.9578 638.72 -13.8575 530 0.424377z"/>
<path style="fill:#0ff1f1; stroke:none;" d="M464 13L465 14L464 13M458 15L459 16L458 15M683 29L684 30L683 29M685 30L686 31L685 30M687 31L688 32L687 31M413 35L414 36L413 35M406 39L407 40L406 39M401 42L402 43L401 42M383 54L384 55L383 54M375 60L376 61L375 60M370 64L371 65L370 64M364 69L365 70L364 69M355 77L356 78L355 77M340 92L341 93L340 92M772 97L773 98L772 97M332 101L333 102L332 101M327 107L328 108L327 107M323 112L324 113L323 112M786 114L787 115L786 114M796 128L797 129L796 128M798 131L799 132L798 131M810 151L811 152L810 151M819 169L820 170L819 169M828 191L829 192L828 191M841 240L842 241L841 240M263 268L264 269L263 268M845 277L846 278L845 277M844 297L845 298L844 297M264 298L265 299L264 298z"/>
<path style="fill:#ff0101; stroke:none;" d="M149 357L150 358L149 357z"/>
<path style="fill:#e1157b; stroke:none;" d="M150 357.529C127.058 362.832 136.069 397.604 159 392.61C182.146 387.569 173.114 352.187 150 357.529M213 357.533C195.822 361.708 195.822 388.292 213 392.467C228.972 396.349 249.561 393 266 393L378 393L734 393L858 393C870.483 393 894.266 397.65 903.66 387.787C913.533 377.421 907.584 358.538 893 357.105C846.325 352.519 796.926 357 750 357L383 357L268 357C250.954 357 229.56 353.508 213 357.533z"/>
<path style="fill:#ff0101; stroke:none;" d="M162 358L163 359L162 358M898 358L899 359L898 358M908 376L909 377L908 376M172 378L173 379L172 378M907 381L908 382L907 381M905 385L906 386L905 385M162 391L163 392L162 391M898 391L899 392L898 391M13 437L14 438L13 437z"/>
<path style="fill:#e1157b; stroke:none;" d="M14 437.468C-9.66425 442.018 -0.973572 478.114 23 472.606C45.0441 467.541 35.9932 433.24 14 437.468M77 437.529C60.3739 441.373 57.8779 466.977 75 472.347C85.9312 475.776 101.568 473 113 473L194 473L463 473L551 473C561.327 473 577.416 476.195 585.532 468.471C596.254 458.264 590.402 439.86 576 437.329C565.535 435.49 553.618 437 543 437L479 437L205 437L119 437C105.814 437 89.859 434.557 77 437.529z"/>
<path style="fill:#ff0101; stroke:none;" d="M28 440L29 441L28 440M32 444L33 445L32 444M588 445L589 446L588 445M34 462L35 463L34 462M33 464L34 465L33 464M2 465L3 466L2 465M586 467L587 468L586 467M7 470L8 471L7 470z"/>
<path style="fill:#e1157b; stroke:none;" d="M152 517.482C128.763 521.297 133.881 556.984 157 553.66C180.52 550.278 175.23 513.669 152 517.482M215 517.468C196.717 520.924 194.697 547.782 213 553.061C226.951 557.085 245.524 554 260 554L357 554L674 554L784 554C796.185 554 815.561 557.751 824.786 547.895C835.892 536.031 826.85 518.77 812 517.174C772.639 512.942 730.61 517 691 517L369 517L266 517C249.716 517 231.004 514.442 215 517.468z"/>
<path style="fill:#ff0101; stroke:none;" d="M163 519L164 520L163 519M170 526L171 527L170 526M171 528L172 529L171 528M200 530L201 531L200 530M171 542L172 543L171 542M167 548L168 549L167 548z"/>
<path style="fill:#e1157b; stroke:none;" d="M47 598.558C24.9111 604.355 35.7335 639.638 58 633.211C81.0764 626.549 70.0555 592.507 47 598.558M110.001 598.649C92.4043 603.982 96.0022 628.587 112 633.211C129.188 638.179 153.111 634 171 634L299 634L339 634C346.978 634 355.049 634.803 361.907 629.892C373.718 621.434 369.837 600.482 355 598.213C337.484 595.534 317.73 598 300 598L189 598L136 598C127.98 598 117.718 596.31 110.001 598.649z"/>
<path style="fill:#ff0101; stroke:none;" d="M415 598L416 599L415 598z"/>
<path style="fill:#e1157b; stroke:none;" d="M416 598.533C398.022 602.903 400.876 628.55 417 633.211C428.577 636.557 443.986 634 456 634L537 634L802 634L891 634C901.859 634 917.274 636.929 925.892 628.786C935.454 619.751 931.592 600.784 918 598.329C907.567 596.446 895.594 598 885 598L819 598L544 598L458 598C444.904 598 428.738 595.437 416 598.533z"/>
<path style="fill:#ff0101; stroke:none;" d="M919 598L920 599L919 598M359 599L360 600L359 599M104 601L105 602L104 601M102 603L103 604L102 603M368 611L369 612L368 611M98 619L99 620L98 619M930 621L931 622L930 621M102 627L103 628L102 627M103 628L104 629L103 628M48 633L49 634L48 633z"/>
<path style="fill:#e1157b; stroke:none;" d="M451 678.533C428.196 684.074 438.231 718.965 461 713.467C483.794 707.963 473.883 672.973 451 678.533M514 678.558C496.253 683.214 498.636 708.632 515 713.362C522.522 715.536 532.213 714 540 714L590 714L755 714L809 714C817.528 714 826.91 715.459 833.957 709.61C843.549 701.648 841.872 684.359 829.999 679.483C816.214 673.822 793.806 678 779 678L598 678L542 678C533.244 678 522.5 676.328 514 678.558z"/>
<path style="fill:#ff0101; stroke:none;" d="M827 678L828 679L827 678M830 679L831 680L830 679M509 680L510 681L509 680M502 689L503 690L502 689M473 701L474 702L473 701M506 708L507 709L506 708M468 709L469 710L468 709M512 712L513 713L512 712z"/>
<path style="fill:#e1157b; stroke:none;" d="M267 758.529C243.353 763.958 252.257 798.955 276 793.607C298.118 788.624 289.113 753.453 267 758.529M330 758.529C312.923 762.477 311.503 787.072 328 793.03C335.046 795.575 344.59 794 352 794L402 794L570 794L624 794C631.924 794 641.277 795.548 647.985 790.442C658.243 782.633 657.204 765.16 645 759.653C631.862 753.724 609.26 758 595 758L415 758L358 758C349.107 758 338.69 756.521 330 758.529z"/>
<path style="fill:#ff0101; stroke:none;" d="M263 759L264 760L263 759M254 784L255 785L254 784M284 788L285 789L284 788M646 791L647 792L646 791z"/>
</svg>
