<svg xmlns="http://www.w3.org/2000/svg" id="Layer_1" data-name="Layer 1" viewBox="83.8 282.07 832.4 175.93"><defs><style>.cls-1{fill:#f2b705}.cls-2{fill:#53cbc8}</style></defs><path class="cls-1" d="M387.43 356.72a46.59 46.59 0 0 1 9.42 1.08 39 39 0 0 1 10.15 3.64 34.92 34.92 0 0 1 9.07 6.81 26.43 26.43 0 0 1 6.14 10.45 36.81 36.81 0 0 1 1.51 7.34 48.79 48.79 0 0 1 .14 8.63 9.4 9.4 0 0 0 3.14 1.83 10.6 10.6 0 0 0 3.3.53 10.18 10.18 0 0 0 4.76-1.28 26.24 26.24 0 0 0 4.8-3.37 42.78 42.78 0 0 0 4.52-4.61c1.42-1.71 2.78-3.43 4-5.14s2.31-3.35 3.26-4.88 1.72-2.86 2.34-3.92a1.87 1.87 0 0 1 1.65-.71 5.14 5.14 0 0 1 3.29 1.55 9.74 9.74 0 0 1 2.64 4.35 14.09 14.09 0 0 1 .38 6.42 15.7 15.7 0 0 1-3.93 7.61q-1.77 2.77-4 6.41a50.44 50.44 0 0 1-5.12 6.87 30.42 30.42 0 0 1-6.35 5.46 13.93 13.93 0 0 1-7.74 2.21 21.86 21.86 0 0 1-5.9-.85 30.51 30.51 0 0 1-6.42-2.79 42.08 42.08 0 0 1-5.57 10.93 34.85 34.85 0 0 1-8.66 8.47 41.67 41.67 0 0 1-11.79 5.52 52.08 52.08 0 0 1-14.9 2 31.2 31.2 0 0 1-7.62-1.19 35.86 35.86 0 0 1-9.14-3.91 37.31 37.31 0 0 1-8.61-7.13 29 29 0 0 1-6.06-10.7 46.13 46.13 0 0 1-1.92-10.29 57 57 0 0 1 .37-12.38 54.91 54.91 0 0 1 3.34-12.65 35.46 35.46 0 0 1 7.08-11.22 33.87 33.87 0 0 1 11.64-8 41.86 41.86 0 0 1 16.79-3.09zm.35 18.87a17.14 17.14 0 0 0-9.27 2.52 18.93 18.93 0 0 0-6.42 6.65 22.89 22.89 0 0 0-2.91 9.33 25.51 25.51 0 0 0 1.24 10.69 40.92 40.92 0 0 0 1.79 4.45 20.57 20.57 0 0 0 2.85 4.51 14.82 14.82 0 0 0 4.2 3.48 11.52 11.52 0 0 0 5.8 1.43 16.23 16.23 0 0 0 9.18-2.73 19.81 19.81 0 0 0 6.42-6.86 23.57 23.57 0 0 0 2.85-9.55 26.66 26.66 0 0 0-1.31-10.82 43.52 43.52 0 0 0-1.72-4.45 16.79 16.79 0 0 0-2.73-4.24 13.7 13.7 0 0 0-4.09-3.16 12.82 12.82 0 0 0-5.84-1.27zM220.5 426.77q-.83-9.07-1.77-21t-1.89-25q-.94-13-1.87-26.21t-1.58-24.68q-3.49 10.77-7.08 21.62t-6.78 20.64q-3.21 9.76-5.95 17.67t-4.43 12.77c-1.19 2.17-2.4 4.25-3.64 6.22a40.9 40.9 0 0 1-3.8 5.17 18.89 18.89 0 0 1-4 3.56 7.74 7.74 0 0 1-4.28 1.32 9 9 0 0 1-4.93-1.26 5.52 5.52 0 0 1-2.48-3.8c-.07-.35-.12-.72-.15-1a3.8 3.8 0 0 1 .08-1q-3.57-15-6.82-30.21t-6.15-30l-1.35-7q-.68-3.48-1.23-6.86-2.37 9.5-5.34 19.73t-6.42 20.19q-3.45 10-7.35 19.2a165.1 165.1 0 0 1-8.14 16.77 82.2 82.2 0 0 1-8.72 12.84 27 27 0 0 1-9.16 7.43 47.18 47.18 0 0 1-7.2 2.59 23.41 23.41 0 0 1-5.65.79 10.08 10.08 0 0 1-5.94-1.53A6 6 0 0 1 83.9 432a7.79 7.79 0 0 1 1.15-5.48 10.89 10.89 0 0 1 5.36-4.43q4.49-1.9 9-8.39a107.66 107.66 0 0 0 8.78-15.7q4.28-9.27 8.32-20.68t7.59-23.1q3.57-11.7 6.57-22.94T135.9 311q2.23-9.07 3.65-15.14c.93-4.05 1.52-6.56 1.75-7.54a7.54 7.54 0 0 1 3.2-4.75 9.47 9.47 0 0 1 5.09-1.48 7.6 7.6 0 0 1 5.71 2.06c1.29 1.35 2.21 3.82 2.9 7.34q2.13 6.65 3.85 12.49t3.34 12q1.61 6.17 3.16 13.29t3.34 16.4q1.31 6.66 2.59 14.67t3.22 17.93q8.19-23 14.53-40.56t11.27-29.42a127.82 127.82 0 0 1 8.69-17.94q3.8-6.06 6.74-6.06h.71a4.21 4.21 0 0 0 .62 0 3.36 3.36 0 0 1 .63-.06q2.52 0 4.62 3.17a22.68 22.68 0 0 1 3.07 8.22q.58 5.18 1.24 12.84t1.33 16.92q.72 9.24 1.43 19.47t1.42 20.3q.72 10.08 1.43 19.57t1.49 17.19a17.69 17.69 0 0 0 .34 2.8l.56 2.9c.36 1.82.75 3.67 1.18 5.53s.82 3.71 1.18 5.54q.62 3.17.93 6.42a13.41 13.41 0 0 1-.62 5.8 8 8 0 0 1-3.66 4.22q-2.75 1.62-8.13 1.64a6.74 6.74 0 0 1-4.95-2.14c-1.44-1.53-2.53-4.12-3.25-7.85z"/><path class="cls-1" d="M448 369.92c.45-3 1.47-5.29 3.08-6.77a7.72 7.72 0 0 1 5.39-2.23 8.49 8.49 0 0 1 5 1.86 10.16 10.16 0 0 1 3.62 5.45 16.35 16.35 0 0 1 .6 3 13.2 13.2 0 0 1-.1 3.38 20.81 20.81 0 0 1 4.62-6.08 39.14 39.14 0 0 1 7.61-5.61 48.8 48.8 0 0 1 9.27-4.08 32 32 0 0 1 9.75-1.58 18.9 18.9 0 0 1 9.94 2.7c3 1.79 5.12 4.85 6.42 9.15a30.57 30.57 0 0 1 1.29 7.94 52.86 52.86 0 0 1-.41 8.25 71.86 71.86 0 0 1-1.55 8.1c-.66 2.65-1.36 5.13-2.1 7.46s-1.4 4.46-2 6.42-1.07 3.56-1.37 4.81a5.26 5.26 0 0 0-.14 3.92 3.28 3.28 0 0 0 1 1.48 2.69 2.69 0 0 0 1.84.64 9.55 9.55 0 0 0 1.6-.17 4.07 4.07 0 0 0 1.93-1.1 65.64 65.64 0 0 0 9.75-5.3 101.34 101.34 0 0 0 9.12-6.71 89.15 89.15 0 0 0 7.66-7.14 67.21 67.21 0 0 0 5.51-6.41 3.45 3.45 0 0 1 2.75-1.38 4.39 4.39 0 0 1 3.15 1.38 8.09 8.09 0 0 1 2 3.48 15.07 15.07 0 0 1 .23 7.31 15.35 15.35 0 0 1-4 7.51l-8.34 7.93a89.2 89.2 0 0 1-7.93 6.73A71.37 71.37 0 0 1 524 430a74.61 74.61 0 0 1-12.12 5 36.63 36.63 0 0 1-4.5 1.27 20 20 0 0 1-3.94.42 12.84 12.84 0 0 1-8.93-3.13 18.81 18.81 0 0 1-5.18-8.73c-.15-.49-.28-1-.39-1.42s-.21-1-.31-1.54a23.16 23.16 0 0 1-.5-7.19 62.41 62.41 0 0 1 1.15-8.05q.84-4.12 2-8.2c.76-2.71 1.43-5.29 2-7.72s1-4.61 1.36-6.51a10.43 10.43 0 0 0-.09-4.65 6 6 0 0 0-1.69-2.71 4.24 4.24 0 0 0-3-1.11 16.8 16.8 0 0 0-11.28 4 37.13 37.13 0 0 0-8 9.9 76.09 76.09 0 0 0-5.67 12.43q-2.32 6.57-4 11.75a51 51 0 0 0-1.48 7.46 66.75 66.75 0 0 1-1.29 7.41 15.83 15.83 0 0 1-2.42 5.7 5.85 5.85 0 0 1-5.12 2.28 9.65 9.65 0 0 1-6.37-2.33 11.7 11.7 0 0 1-3.8-5.71 18.49 18.49 0 0 1-.34-5.82c.15-2.68.43-5.78.86-9.31s1-7.32 1.62-11.41 1.31-8.08 2-12.06 1.33-7.75 2-11.27 1.09-6.34 1.43-8.83zm180.61-3.49a7.3 7.3 0 0 1 2.72-4.24 7.49 7.49 0 0 1 4.28-1.27 12.75 12.75 0 0 1 7.53 2.6 12.39 12.39 0 0 1 4.85 6.61c.13.64.24 1.27.33 1.9a5.11 5.11 0 0 1-.09 1.91c-.4 1.84-.72 3.39-.94 4.66s-.44 2.45-.62 3.56-.35 2.14-.51 3.23-.35 2.33-.59 3.81q-.42 2.66-1 5.77t-1 6.42a55 55 0 0 0-.4 6.42 19.43 19.43 0 0 0 .8 5.82 5.94 5.94 0 0 0 2.54 3.76 9 9 0 0 0 4.23.9 13.43 13.43 0 0 0 5.64-1.27 27.69 27.69 0 0 0 5.32-3.28 36 36 0 0 0 4.88-4.6q2.29-2.59 4.22-5.25t3.48-5.07a46 46 0 0 0 2.54-4.34 4.22 4.22 0 0 1 3.51-2 5 5 0 0 1 3.56 1.69 10.11 10.11 0 0 1 2.51 4.34 12.3 12.3 0 0 1 .4 5.19 10.37 10.37 0 0 1-2.27 5.18q-3.57 5.5-7.49 10.53a60.81 60.81 0 0 1-8.46 8.89 42 42 0 0 1-9.59 6.19 25.82 25.82 0 0 1-10.91 2.33 24.14 24.14 0 0 1-14.47-4.4q-6.14-4.38-9-13.7a34.93 34.93 0 0 1-1.57-9.52 66.66 66.66 0 0 1 .43-9.05q.51-4.39 1.33-8.46a70.4 70.4 0 0 0 1.2-7.79c.07-.92.23-2.33.51-4.23s.59-3.86.95-5.83c.32-2.33.71-4.84 1.15-7.41zm4.06-23.81a15.4 15.4 0 0 1-.67-5 10.83 10.83 0 0 1 1.19-4.7 8.89 8.89 0 0 1 3.31-3.49 10.82 10.82 0 0 1 5.81-1.38q6 0 9.06 2.38a11.65 11.65 0 0 1 4.19 6 14.19 14.19 0 0 1 .58 4.44 10.88 10.88 0 0 1-.94 4.5 8 8 0 0 1-3 3.44 9.65 9.65 0 0 1-5.45 1.38q-6.42 0-9.58-2.07a11.24 11.24 0 0 1-4.54-5.48z"/><path class="cls-1" d="M767 410.45a49 49 0 0 1-12.54 9.47 34.69 34.69 0 0 1-16 3.44 18.53 18.53 0 0 1-6.33-1.17 70 70 0 0 1-8.77-4.12q-4 9.19-9.37 14a18.74 18.74 0 0 1-12.84 4.76 21.67 21.67 0 0 1-7.3-1.33 23.56 23.56 0 0 1-7-4 31 31 0 0 1-6-6.56 32.81 32.81 0 0 1-4.28-9.1 77.25 77.25 0 0 1-2.79-13.7q-.85-7.36-1-14.35t-.08-12.91c.06-3.95.12-7.09.16-9.42q.72-4.44 3.25-6.42a8.86 8.86 0 0 1 5.52-2 10 10 0 0 1 2.86.48 13.22 13.22 0 0 1 2.92 1.32 11.63 11.63 0 0 1 2.47 2 6.67 6.67 0 0 1 1.49 2.54 4.17 4.17 0 0 1 .2 2q0 5.08-.27 11.06t-.3 12q0 6 .46 11.8a50.87 50.87 0 0 0 1.93 10.53 15.19 15.19 0 0 0 .8 2c.39.81.8 1.59 1.23 2.33a10.23 10.23 0 0 0 1.42 1.9 2.1 2.1 0 0 0 1.38.8c1.78 0 3.46-1 5-3.07a38.84 38.84 0 0 0 4.61-8.47 36.53 36.53 0 0 0 3.77-8.73q1.5-5 2.61-10.32t2.07-10.42c.63-3.42 1.35-6.49 2.14-9.21a25.15 25.15 0 0 1 2.78-6.56 4.73 4.73 0 0 1 4.08-2.48 8.88 8.88 0 0 1 6.83 2.8 17.15 17.15 0 0 1 3.8 6.72 22.77 22.77 0 0 1 1.1 8.15 36.4 36.4 0 0 1-1.43 7.67c-.78 2.64-1.75 5.57-2.93 8.78s-2.37 7-3.57 11.49a8.09 8.09 0 0 0 5.83 2.22 29.18 29.18 0 0 0 7.38-1 34.2 34.2 0 0 0 7.05-2.7 39.61 39.61 0 0 0 6.47-4.24 49 49 0 0 0 5.8-5.45 4.29 4.29 0 0 1 2.59-.95 5.06 5.06 0 0 1 3.57 1.7 10.15 10.15 0 0 1 2.5 4.33 12.72 12.72 0 0 1 .24 6.19 11.09 11.09 0 0 1-3.51 6.2z"/><path class="cls-1" d="M790.25 357.11q8.55 0 14 4.24a22.63 22.63 0 0 1 7.81 11.75 20.33 20.33 0 0 1 .57 9.27 21.49 21.49 0 0 1-4.8 9.9 52.9 52.9 0 0 1-11.74 10.26A120.27 120.27 0 0 1 776 413.06a10.47 10.47 0 0 0 4.65 4.81 15.74 15.74 0 0 0 7.64 1.75 35 35 0 0 0 9.7-1.43 60.69 60.69 0 0 0 9.59-3.65q4.62-2.22 8.88-4.81t7.61-4.92q3.35-2.34 5.56-4a30.35 30.35 0 0 1 3-2.14 2.9 2.9 0 0 1 1.47-.71 12.26 12.26 0 0 1 1.36-.1 4.37 4.37 0 0 1 2.23.58 8.67 8.67 0 0 1 1.81 1.38 6.83 6.83 0 0 1 1.29 1.69 9.61 9.61 0 0 1 .68 1.54 17.29 17.29 0 0 1 .49 2.27 5.28 5.28 0 0 1-.63 3 36.64 36.64 0 0 1-2.58 2.85c-1.48 1.56-3.44 3.39-5.88 5.51a109 109 0 0 1-8.71 6.71 84.87 84.87 0 0 1-11 6.52 74.61 74.61 0 0 1-12.75 4.91 50.39 50.39 0 0 1-14 2 28.73 28.73 0 0 1-11.7-2.43 38.37 38.37 0 0 1-10.13-6.56 44.32 44.32 0 0 1-8-9.53 46.64 46.64 0 0 1-5.2-11.32 32.12 32.12 0 0 1-1.31-10 41.08 41.08 0 0 1 1.7-11 45.18 45.18 0 0 1 4.8-10.74 37.25 37.25 0 0 1 19.08-15.69 41 41 0 0 1 14.6-2.44zm.71 14.61a5 5 0 0 0-1-.11h-.92a14.1 14.1 0 0 0-6.83 1.59 15.94 15.94 0 0 0-5 4.18 21.77 21.77 0 0 0-3.25 5.87 57.4 57.4 0 0 0-2 6.51 48 48 0 0 0-1 6.2c-.18 2-.28 3.63-.28 5a73.07 73.07 0 0 0 6.14-4.34c2.08-1.62 4-3.18 5.83-4.66s3.38-2.82 4.69-4 2.25-2 2.81-2.43c2.49-2 4-3.83 4.68-5.56a7 7 0 0 0 .38-4.5 4.85 4.85 0 0 0-1.75-2.54 5.82 5.82 0 0 0-2.53-1.2zm-168.35 13.81a7.9 7.9 0 0 1 2.85 6.21 10.82 10.82 0 0 1-1.1 4.51c-2 4-6.25 7.31-9.79 10s-9 4-13.28 4a12.51 12.51 0 0 1-8.7-3.23 11.14 11.14 0 0 1-3.56-8.71 63.35 63.35 0 0 1 .36-6.61 30.63 30.63 0 0 0 .37-3.57 2.69 2.69 0 0 0-.64-1.94 2.12 2.12 0 0 0-1.56-.64q-2.56 0-7 5.4a77.23 77.23 0 0 0-8.79 14.27 106.05 106.05 0 0 0-7.09 18.78q-2 7.76-4.58 10.32t-8.43 2.58a10 10 0 0 1-9.8-6.41Q539 424 539 409.76a116.78 116.78 0 0 1 6.77-39.84 12.31 12.31 0 0 1 5.41-6.86q3.75-2.18 10.53-2.18a11.51 11.51 0 0 1 5.13.81 3.19 3.19 0 0 1 1.47 3.06q0 2.6-2.75 11.62c-1.23 4.28-2.2 8-2.94 11.29a104.62 104.62 0 0 0-1.83 11.94q6-13.87 13.55-22.59T589 364.6q7.13-3.72 13-3.72 5.29 0 8.15 2.67t2.85 7.84q0 3.06-2 11.61h1.66c2.67 0 8.05.86 9.95 2.53z"/><path class="cls-1" d="M913.35 385.42a7.93 7.93 0 0 1 2.85 6.21 11 11 0 0 1-1.09 4.52c-2 4-6.26 7.32-9.8 10s-9 4.08-13.26 4.08a12.51 12.51 0 0 1-8.7-3.23 11.15 11.15 0 0 1-3.57-8.71 63.51 63.51 0 0 1 .37-6.61 32.79 32.79 0 0 0 .37-3.56 2.65 2.65 0 0 0-.65-1.94 2.15 2.15 0 0 0-1.55-.65q-2.57 0-7 5.41a77.41 77.41 0 0 0-8.8 14.26 108 108 0 0 0-7.13 18.71q-2 7.74-4.58 10.33t-8.43 2.58a10 10 0 0 1-9.8-6.42q-2.83-6.42-2.85-20.68a117.08 117.08 0 0 1 6.78-39.85A12.31 12.31 0 0 1 842 363q3.76-2.19 10.54-2.14a11.61 11.61 0 0 1 5.12.8 3.19 3.19 0 0 1 1.47 3.07q0 2.58-2.74 11.61-1.85 6.42-2.93 11.29a102.47 102.47 0 0 0-1.84 11.94q6-13.87 13.55-22.59t14.65-12.41q7.14-3.72 13-3.71c3.57 0 6.26.88 8.15 2.66s2.86 4.38 2.86 7.84q0 3.06-2 11.61h1.64c2.59-.05 7.98.78 9.88 2.45zm-618.85-28.7a37.88 37.88 0 0 0-37.87 37.87 38.69 38.69 0 0 0 .67 7.13l4.9-3.35c8.6-5.9 22.55-5.9 31.15 0l5.13 3.52 2.79 1.91c7.75 5.31 20.31 5.31 28.05 0l2.28-1.56a37.89 37.89 0 0 0-37.08-45.5z"/><path class="cls-2" d="M315.79 417.34a27.21 27.21 0 0 1-15.27-4.34l-7.91-5.42a27.36 27.36 0 0 0-28.62 0l-5.11 3.5a2.22 2.22 0 1 1-2.51-3.67l5.11-3.5a31.87 31.87 0 0 1 33.64 0l7.91 5.42a24.4 24.4 0 0 0 25.51 0l3-2.05a2.22 2.22 0 1 1 2.51 3.67l-3 2.05a27.31 27.31 0 0 1-15.26 4.34z"/><path class="cls-2" d="M278.14 433.25v-21.4a8.71 8.71 0 0 1 .05-1.35 2.42 2.42 0 0 1 2.4-2.14 2.34 2.34 0 0 1 2.26 2.14 13 13 0 0 1 .08 2.24v42.67a2.5 2.5 0 0 1-2.45 2.59 2.46 2.46 0 0 1-2.31-2.71v-14.23zm-4.5-10.77v10.63c0 1.82-1 3-2.35 3s-2.42-1.27-2.43-3v-21.28c0-1.86 1.09-3.12 2.5-3s2.25 1.19 2.26 3.06c.02 3.5.02 7.04.02 10.59zm13.81-.02V415c0-1.73.92-2.85 2.29-2.85a2.57 2.57 0 0 1 2.44 2.79q.07 7.62 0 15.25c0 1.73-1 2.78-2.43 2.76s-2.3-1.08-2.31-2.85v-7.63zM259.59 424v-7.47c0-1.74.92-2.86 2.29-2.86a2.57 2.57 0 0 1 2.44 2.79q.07 7.63 0 15.26c0 1.73-1 2.77-2.42 2.76s-2.31-1.08-2.32-2.86V424z"/><rect class="cls-2" x="296.71" y="417.66" width="4.7" height="8.76" rx="2.35"/><rect class="cls-2" x="306.01" y="421.22" width="4.7" height="27.49" rx="2.35"/><rect class="cls-2" x="315.25" y="422.1" width="4.7" height="24.07" rx="2.35"/><rect class="cls-2" x="324.62" y="419.89" width="4.7" height="13.05" rx="2.35"/></svg>
